<svg xmlns="http://www.w3.org/2000/svg" fill="none" viewBox="0 0 88 65" height="65" width="88">
<g clip-path="url(#clip0_396_408)">
<path fill="white" d="M18.8721 8.78531C18.9345 8.79963 18.9968 8.81395 19.061 8.82871C21.9886 9.51295 24.7308 11.2844 26.536 13.6936C26.6047 13.7836 26.6735 13.8735 26.7443 13.9661C28.6401 16.4956 29.5928 19.5142 29.5768 22.6653C29.5766 22.7316 29.5765 22.7979 29.5763 22.8662C29.5608 26.3249 28.3185 29.7607 25.981 32.3421C25.8281 32.5407 25.8281 32.5407 25.8461 32.7669C25.9571 33.0416 26.1004 33.2028 26.3046 33.4185C26.3444 33.4608 26.3842 33.5032 26.4252 33.5468C26.9456 34.0947 27.4852 34.6247 28.0231 35.1553C28.0955 35.227 28.1679 35.2986 28.2424 35.3725C28.3077 35.4367 28.3729 35.5009 28.4401 35.5671C28.6436 35.781 28.7637 35.9414 28.8234 36.2332C28.7605 36.5962 28.6059 36.744 28.3545 37.0022C28.0961 37.1633 27.9553 37.1675 27.6555 37.1159C27.4611 36.9622 27.3092 36.8227 27.1442 36.6423C27.0813 36.577 27.0813 36.577 27.0172 36.5104C26.787 36.269 26.5679 36.0195 26.351 35.766C25.9302 35.2822 25.4691 34.8373 25.0129 34.3872C24.8365 34.2131 24.6604 34.0387 24.4845 33.8642C24.4072 33.7878 24.3298 33.7115 24.2502 33.6328C23.7118 33.0731 23.7118 33.0731 23.6449 32.7259C23.7106 32.3807 23.8874 32.2304 24.1411 32.0084C25.9848 30.273 27.1432 27.9299 27.7416 25.4909C27.7629 25.4043 27.7629 25.4043 27.7847 25.3161C28.1912 23.5761 28.1587 21.6283 27.7416 19.8936C27.7268 19.8302 27.712 19.7667 27.6968 19.7013C27.4684 18.7425 27.1397 17.8512 26.7083 16.9659C26.6378 16.8212 26.6378 16.8212 26.566 16.6736C26.0138 15.599 25.3041 14.6506 24.4694 13.7798C24.4052 13.7102 24.3411 13.6406 24.2749 13.5689C22.421 11.6201 19.6543 10.2956 16.9578 10.1478C15.5799 10.1224 14.2668 10.1321 12.9305 10.5075C12.8733 10.5232 12.816 10.5389 12.7571 10.555C11.0784 11.0279 9.60411 11.8792 8.28048 13.0048C8.19801 13.0746 8.11553 13.1444 8.03056 13.2163C5.56444 15.3583 4.18868 18.5846 3.91034 21.7989C3.90153 21.9674 3.8942 22.1361 3.88882 22.3048C3.88537 22.3776 3.88193 22.4504 3.87839 22.5254C3.78582 26.0974 5.29331 29.3636 7.6777 31.9492C9.69088 34.0239 12.6082 35.2185 15.4768 35.3072C16.8591 35.3237 18.092 34.9532 19.1305 34.0159C19.9893 33.0836 20.4514 32.0178 20.4221 30.7436C20.3001 29.4712 19.6333 28.3535 18.6599 27.5387C17.9763 27.0584 17.2312 26.8175 16.4166 26.6655C16.346 26.6473 16.2754 26.6291 16.2027 26.6103C16.1743 26.5535 16.1459 26.4966 16.1166 26.4381C16.562 25.7569 17.0239 25.0877 17.489 24.4199C17.5489 24.3336 17.6087 24.2474 17.6704 24.1585C17.9266 23.7901 18.1832 23.4222 18.4476 23.0596C18.4847 23.0081 18.5218 22.9567 18.56 22.9036C18.6544 22.7731 18.7499 22.6433 18.8456 22.5136C18.9777 22.3153 18.9777 22.3153 18.9391 22.1093C18.8831 21.961 18.8831 21.961 18.786 21.8742C18.6179 21.8645 18.4494 21.8607 18.281 21.8593C18.1729 21.8581 18.0649 21.8569 17.9536 21.8557C17.8664 21.8551 17.8664 21.8551 17.7775 21.8544C17.5962 21.853 17.415 21.851 17.2337 21.8488C16.7182 21.8427 16.2026 21.8375 15.6871 21.8331C15.3721 21.8304 15.0571 21.8269 14.7421 21.8228C14.6218 21.8214 14.5016 21.8204 14.3813 21.8196C14.2133 21.8186 14.0452 21.8164 13.8772 21.8142C13.7815 21.8133 13.6858 21.8124 13.5871 21.8115C13.361 21.7881 13.361 21.7881 13.1888 21.6159C13.1659 21.3602 13.1659 21.3602 13.1673 21.0561C13.1666 20.9056 13.1666 20.9056 13.1659 20.7521C13.1888 20.4964 13.1888 20.4964 13.361 20.3242C13.6231 20.308 13.8773 20.3025 14.1394 20.3046C14.2201 20.3046 14.3008 20.3046 14.3839 20.3046C14.6513 20.3047 14.9187 20.306 15.1862 20.3074C15.3713 20.3077 15.5564 20.3079 15.7415 20.3081C16.2293 20.3088 16.7171 20.3105 17.205 20.3124C17.7025 20.3141 18.2 20.3149 18.6976 20.3158C19.6743 20.3176 20.651 20.3206 21.6277 20.3242C21.8114 20.8128 21.8114 20.8128 21.7078 21.0654C21.6297 21.1755 21.6297 21.1755 21.55 21.2879C21.4932 21.3701 21.4364 21.4522 21.3778 21.5369C21.2884 21.6612 21.2884 21.6612 21.1971 21.7881C21.0911 21.9431 20.9851 22.0982 20.8793 22.2533C20.7683 22.4123 20.6572 22.5712 20.5459 22.7299C20.4576 22.8566 20.4576 22.8566 20.3675 22.9858C20.0671 23.4162 19.7652 23.8456 19.4618 24.2739C19.406 24.3529 19.3502 24.432 19.2926 24.5134C19.1863 24.6638 19.0796 24.814 18.9725 24.9639C18.9252 25.0309 18.8779 25.0979 18.8291 25.1669C18.7665 25.2549 18.7665 25.2549 18.7026 25.3447C18.5989 25.4869 18.5989 25.4869 18.6138 25.6631C18.7552 25.7623 18.9015 25.8544 19.0498 25.943C20.3857 26.7749 21.3417 28.0684 21.7592 29.5946C22.0926 31.2479 21.8545 32.7697 20.9388 34.1881C19.9141 35.6583 18.458 36.563 16.6978 36.8791C14.453 37.175 12.1916 36.6313 10.1749 35.652C10.1211 35.6264 10.0673 35.6008 10.0119 35.5744C8.6703 34.9285 7.53989 34.0108 6.47215 32.9825C6.41698 32.9318 6.36181 32.8811 6.30497 32.8288C3.95628 30.6109 2.53236 27.0571 2.34655 23.8712C2.344 23.7805 2.34145 23.6899 2.33882 23.5964C2.33617 23.5048 2.33617 23.5048 2.33348 23.4114C2.23447 19.4127 3.50871 15.7189 6.21382 12.7464C6.28597 12.6671 6.35812 12.5877 6.43246 12.5059C7.46451 11.4255 8.6759 10.5817 10.0027 9.90476C10.0808 9.86386 10.0808 9.86386 10.1605 9.82214C12.7642 8.46944 16.0204 8.092 18.8721 8.78531Z"></path>
<path fill="white" d="M24.5132 39.9375C24.7284 39.959 24.7284 39.959 24.9007 40.1312C24.8733 40.7229 24.7287 41.2534 24.5508 41.8158C24.5266 41.8944 24.5023 41.9731 24.4773 42.0541C24.4181 42.2458 24.3582 42.4372 24.2979 42.6285C24.349 42.6224 24.4002 42.6162 24.4528 42.6099C25.2125 42.5292 25.9688 42.5314 26.7315 42.534C26.873 42.5341 27.0146 42.5342 27.1561 42.5343C27.5254 42.5346 27.8947 42.5355 28.2641 42.5364C28.6422 42.5373 29.0203 42.5377 29.3985 42.5382C30.1381 42.5391 30.8777 42.5405 31.6173 42.5424C31.6464 42.4718 31.6464 42.4718 31.676 42.3998C31.765 42.1844 31.8545 41.9693 31.9439 41.7542C31.9744 41.6802 32.0049 41.6062 32.0363 41.5299C32.5418 40.3187 32.5418 40.3187 33.0812 39.959C33.3503 39.9806 33.3503 39.9806 33.5979 40.0451C33.8941 40.6376 33.6495 41.3837 33.4537 41.975C33.3885 42.1647 33.3212 42.3535 33.2534 42.5424C33.2181 42.6433 33.2181 42.6433 33.1821 42.7462C32.8162 43.7848 32.3774 44.7762 31.8864 45.7618C31.8441 45.8471 31.8018 45.9325 31.7583 46.0204C31.7207 46.0951 31.6832 46.1697 31.6445 46.2466C31.3778 46.8515 31.2187 47.4703 31.0902 48.117C31.0664 48.2348 31.0663 48.2348 31.042 48.3549C30.991 48.6077 30.9408 48.8607 30.8908 49.1137C30.8736 49.1997 30.8564 49.2857 30.8387 49.3743C30.5732 50.7063 30.3443 52.0362 30.1825 53.3852C30.1534 53.5646 30.1534 53.5646 30.0673 53.7368C30.181 53.7936 30.2947 53.8505 30.4118 53.909C30.3606 54.4517 30.3606 54.4517 30.2288 54.6786C29.9728 54.8237 29.7516 54.7962 29.4646 54.7701C29.2531 54.5587 29.2683 54.4361 29.2646 54.1469C29.2651 54.0849 29.2656 54.023 29.2661 53.9591C29.2664 53.8943 29.2668 53.8294 29.2671 53.7626C29.2814 52.9875 29.409 52.2334 29.5399 51.471C29.5634 51.3288 29.5869 51.1866 29.6102 51.0443C29.6653 50.71 29.7216 50.3759 29.7784 50.0419C29.8235 49.7762 29.8677 49.5104 29.9119 49.2446C29.9255 49.1632 29.939 49.0818 29.953 48.9979C29.9623 48.942 29.9716 48.8861 29.9812 48.8285C29.9063 48.9172 29.9063 48.9172 29.8299 49.0078C29.7626 49.0853 29.6953 49.1629 29.626 49.2429C29.5601 49.3198 29.4941 49.3967 29.4262 49.476C29.1919 49.7035 28.9918 49.8267 28.6896 49.9479C28.3652 49.9423 28.1635 49.9095 27.8876 49.738C27.6682 49.4047 27.6267 49.0467 27.5701 48.6562C27.4949 48.7375 27.4949 48.7375 27.4181 48.8204C26.7464 49.5216 26.0093 50.2486 24.9975 50.3139C24.6491 50.3074 24.4182 50.2335 24.1257 50.034C23.6538 49.4218 23.6384 48.8907 23.6951 48.1396C23.9177 46.9845 24.3867 45.942 25.2451 45.1257C25.5737 44.9066 25.8074 44.9038 26.1923 44.9535C26.3646 45.045 26.3646 45.045 26.4507 45.2118C26.5235 45.6162 26.4492 45.8594 26.2354 46.1967C25.8848 46.6824 25.474 47.1043 24.9975 47.4668C24.6162 47.7921 24.5979 48.234 24.5596 48.7097C24.5553 48.9677 24.5777 49.1327 24.7284 49.3451C24.9182 49.455 24.9182 49.455 25.159 49.4312C25.6407 49.2182 25.9905 48.896 26.3716 48.5365C26.5368 48.3979 26.5368 48.3979 26.709 48.3979C26.7316 48.347 26.7543 48.296 26.7776 48.2435C26.8859 48.045 26.9973 47.9228 27.1611 47.7682C27.3747 47.5626 27.5673 47.3534 27.7531 47.1224C27.9637 46.8713 28.1238 46.7928 28.4312 46.6757C28.6111 46.5286 28.7812 46.3741 28.9509 46.2155C29.262 45.9533 29.4941 45.8767 29.9005 45.8792C29.9743 45.8787 30.0481 45.8783 30.1242 45.8778C30.3257 45.9007 30.3257 45.9007 30.584 46.0729C30.8397 45.1636 31.0955 44.2542 31.359 43.3174C30.9821 43.3236 30.6053 43.3298 30.217 43.3362C29.911 43.3412 29.6049 43.3461 29.2989 43.351C28.9789 43.3562 28.6589 43.3614 28.3389 43.3667C26.9057 43.3905 25.473 43.4108 24.0396 43.4035C24.0259 43.4858 24.0259 43.4858 24.0119 43.5698C23.8982 44.2259 23.7459 44.8679 23.5824 45.5132C23.5543 45.6254 23.5262 45.7376 23.4982 45.8498C23.4387 46.0879 23.3791 46.3259 23.3195 46.5639C22.8324 48.5095 22.3622 50.4572 21.9406 52.4182C21.9211 52.5083 21.9016 52.5983 21.8815 52.6911C21.5604 54.1076 21.5604 54.1076 21.3701 55.5451C21.3985 55.5736 21.4269 55.602 21.4562 55.6312C21.4827 55.9225 21.4685 56.1173 21.3593 56.3901C21.1979 56.5785 21.1979 56.5785 20.9396 56.6646C20.6812 56.6646 20.6812 56.6646 20.5379 56.5577C20.3116 56.2597 20.3906 55.9017 20.4229 55.5451C20.4919 55.0648 20.5823 54.5896 20.6758 54.1135C20.7024 53.9753 20.729 53.837 20.7556 53.6987C21.067 52.0961 21.432 50.5049 21.8007 48.9146C21.7326 48.9829 21.6645 49.0513 21.5943 49.1217C20.7457 49.9673 20.7457 49.9673 20.1323 49.9856C19.8012 49.9747 19.5754 49.9139 19.3277 49.6751C19.0956 49.3433 18.9889 48.9544 18.8729 48.5701C18.8445 48.4849 18.8161 48.3996 18.7868 48.3118C18.7276 48.3782 18.6684 48.4446 18.6075 48.513C18.5291 48.6002 18.4508 48.6874 18.3724 48.7747C18.314 48.8403 18.314 48.8403 18.2545 48.9072C17.9555 49.2389 17.7864 49.4199 17.3283 49.4635C17.0552 49.4751 16.9942 49.4454 16.7844 49.257C16.7347 49.2008 16.6851 49.1447 16.634 49.0868C16.605 49.1284 16.5759 49.1701 16.546 49.213C16.4123 49.4043 16.2783 49.5954 16.1442 49.7865C16.0986 49.8519 16.0529 49.9174 16.0058 49.9849C14.8578 51.6189 14.8578 51.6189 14.0291 51.7724C13.7062 51.7562 13.7062 51.7562 13.4533 51.6109C13.1542 51.2756 13.1723 50.9313 13.1777 50.499C13.1964 50.1739 13.2601 49.8659 13.3349 49.5497C13.3575 49.4507 13.3575 49.4507 13.3805 49.3497C13.5337 48.7022 13.7393 48.0765 13.9646 47.4507C13.9196 47.4693 13.8746 47.488 13.8283 47.5072C13.4272 47.6589 13.1393 47.7151 12.7106 47.6714C12.4067 47.6625 12.2892 47.6686 12.0563 47.8695C11.8784 48.0969 11.7164 48.3318 11.5534 48.5701C11.0116 49.2287 10.407 49.9335 9.57289 50.2062C9.05248 50.1883 9.05248 50.1883 8.81404 49.991C8.6634 49.6739 8.60205 49.3448 8.53956 49.0007C8.49682 49.0328 8.45408 49.0649 8.41005 49.0979C8.09931 49.3143 7.91991 49.4301 7.53313 49.4366C7.22859 49.3389 7.0491 49.2184 6.81733 49.0007C6.79499 49.1108 6.77266 49.2209 6.74964 49.3343C6.64986 49.782 6.5058 50.2065 6.35045 50.6375C6.32145 50.7191 6.29246 50.8007 6.26259 50.8848C6.1681 51.1503 6.07295 51.4156 5.97775 51.6809C5.91181 51.8655 5.84591 52.0501 5.78003 52.2347C5.6459 52.6103 5.51149 52.9858 5.37695 53.3613C5.22261 53.7925 5.06963 54.2242 4.91748 54.6562C4.81032 54.9603 4.70263 55.2643 4.59485 55.5682C4.54514 55.7087 4.49564 55.8493 4.44637 55.99C3.73182 58.0279 3.73182 58.0279 3.28678 58.4729C3.02845 58.4944 3.02845 58.4944 2.77011 58.4729C2.55922 58.262 2.57194 58.2062 2.57003 57.9156C2.58417 57.1873 2.73645 56.4783 2.87136 55.7648C2.89977 55.6111 2.92811 55.4575 2.95638 55.3038C3.03071 54.9009 3.10604 54.4982 3.1816 54.0955C3.25759 53.6895 3.3326 53.2833 3.4077 52.8772C3.56726 52.0154 3.72809 51.1538 3.88956 50.2924C3.90222 50.2248 3.91488 50.1572 3.92793 50.0876C4.00121 49.6966 4.07453 49.3056 4.14789 48.9146C4.07784 48.9827 4.07784 48.9827 4.00638 49.0522C3.64104 49.4023 3.38632 49.6137 2.85622 49.6035C2.60269 49.5349 2.53708 49.4743 2.40414 49.2483C2.20957 48.5024 2.42158 47.9461 2.77011 47.2785C3.11954 46.7371 3.62356 46.3625 4.234 46.159C4.43279 46.1443 4.6321 46.1361 4.8314 46.1321C4.93696 46.1289 5.04252 46.1257 5.15129 46.1224C5.48481 46.1648 5.57986 46.2441 5.784 46.5035C5.71404 46.7134 5.71404 46.7134 5.61178 46.934C5.52653 46.9624 5.44128 46.9909 5.35345 47.0201C5.35663 47.1026 5.35981 47.185 5.3631 47.27C5.36261 47.6737 5.28169 48.0539 5.19905 48.4477C5.17496 48.5661 5.17496 48.5661 5.15038 48.687C5.11608 48.8554 5.08151 49.0238 5.04671 49.1921C4.95648 49.6288 4.86817 50.0659 4.7796 50.5029C4.76212 50.5889 4.74464 50.6749 4.72663 50.7634C4.58323 51.47 4.44592 52.1775 4.31473 52.8865C4.29723 52.9801 4.27972 53.0737 4.26169 53.1701C4.17643 53.6229 4.17643 53.6229 4.14789 54.0812C4.16755 54.0245 4.18722 53.9678 4.20748 53.9094C4.39679 53.3637 4.5866 52.8182 4.77692 52.2729C4.87465 51.9928 4.97222 51.7127 5.06934 51.4324C5.29423 50.7837 5.52239 50.1362 5.75557 49.4904C5.83209 49.2783 5.90801 49.0659 5.98331 48.8534C6.09108 48.5515 6.20236 48.2511 6.3148 47.9509C6.34655 47.8604 6.37831 47.7698 6.41103 47.6766C6.64039 47.0806 6.64039 47.0806 6.90182 46.9065C7.21042 46.786 7.52119 46.7134 7.85067 46.7618C8.02289 46.934 8.02289 46.934 8.0498 47.1278C8.02289 47.3646 8.02289 47.3646 7.89372 47.6122C7.7433 47.9255 7.75482 48.1407 7.76456 48.484C7.82272 48.4196 7.88089 48.3553 7.94082 48.2889C8.0184 48.2033 8.09599 48.1176 8.17358 48.0319C8.24951 47.948 8.32544 47.8641 8.40366 47.7776C8.47692 47.6982 8.55019 47.6187 8.62567 47.5368C8.68616 47.4694 8.74666 47.402 8.80899 47.3326C8.97011 47.1924 8.97011 47.1924 9.24459 47.2085C9.48678 47.2785 9.48678 47.2785 9.57289 47.3646C9.60098 47.8273 9.58199 48.2882 9.52445 48.7477C9.45781 49.0678 9.45781 49.0678 9.57289 49.259C10.9049 48.2051 10.9049 48.2051 11.6766 46.7894C11.6699 46.6471 11.6599 46.505 11.6463 46.3632C11.6289 45.8347 11.952 45.4001 12.28 45.0127C12.3809 44.9056 12.4831 44.7996 12.5868 44.6951C12.656 44.6241 12.7253 44.5531 12.7967 44.4799C13.1207 44.2902 13.3333 44.3146 13.7062 44.3507C13.9646 44.5229 13.9646 44.5229 14.0019 44.6818C14.0028 45.2204 13.8663 45.6038 13.6201 46.0783C13.5708 46.1778 13.5708 46.1778 13.5205 46.2793C13.4403 46.4408 13.3582 46.6014 13.2757 46.7618C13.3577 46.7173 13.4397 46.6728 13.5242 46.6269C13.6333 46.5696 13.7424 46.5123 13.8515 46.455C13.9054 46.4256 13.9593 46.3961 14.0148 46.3657C14.2647 46.2362 14.4412 46.1568 14.7251 46.1728C14.9118 46.2451 14.9118 46.2451 15.084 46.4174C15.0595 47.0116 14.9066 47.5185 14.7073 48.075C14.2394 49.4095 14.2394 49.4095 14.1368 50.809C15.0346 49.991 15.679 48.9563 16.2896 47.9162C16.4389 47.6619 16.5893 47.4093 16.747 47.1601C16.784 47.1008 16.8209 47.0415 16.859 46.9804C16.9784 46.8479 16.9784 46.8479 17.1463 46.8062C17.3897 46.745 17.4685 46.6214 17.6243 46.4281C17.9159 46.0689 18.1611 45.7962 18.6361 45.7339C19.0711 45.6965 19.3779 45.8312 19.734 46.0729C19.9062 46.2451 19.9062 46.2451 19.9331 46.5035C19.9243 46.5887 19.9154 46.674 19.9062 46.7618C19.821 46.8186 19.7357 46.8755 19.6479 46.934C19.5783 47.6413 19.6795 48.4884 20.0784 49.0868C20.5787 48.9996 20.8724 48.6119 21.1573 48.214C21.3221 47.9592 21.4787 47.7 21.6353 47.4401C21.6742 47.3773 21.7132 47.3146 21.7532 47.2499C21.7873 47.1933 21.8213 47.1367 21.8564 47.0784C21.9729 46.934 21.9729 46.934 22.145 46.8594C22.3266 46.7777 22.3266 46.7777 22.3914 46.6136C22.406 46.5543 22.4205 46.495 22.4355 46.434C22.4527 46.3667 22.4699 46.2995 22.4876 46.2303C22.5047 46.1577 22.5218 46.0851 22.5393 46.0104C22.5673 45.8989 22.5673 45.8989 22.5958 45.7852C22.655 45.5477 22.7122 45.3098 22.7694 45.0719C22.8092 44.9108 22.8491 44.7498 22.8892 44.5888C22.9871 44.1941 23.0832 43.7989 23.1784 43.4035C23.0774 43.4095 22.9763 43.4155 22.8722 43.4217C21.9981 43.472 21.1266 43.5056 20.2511 43.5055C20.0679 43.5057 19.8847 43.5073 19.7015 43.5089C19.584 43.5092 19.4664 43.5093 19.3489 43.5094C19.2447 43.5098 19.1406 43.5101 19.0333 43.5105C18.7868 43.4896 18.7868 43.4896 18.6146 43.3174C18.593 43.1021 18.593 43.1021 18.6146 42.8868C18.8384 42.663 18.9401 42.6888 19.2523 42.6789C19.3976 42.6739 19.3976 42.6739 19.5459 42.6688C19.6506 42.6662 19.7553 42.6635 19.8632 42.6608C19.9699 42.6575 20.0766 42.6542 20.1865 42.6509C21.2699 42.6206 22.3531 42.6196 23.4368 42.6285C23.4681 42.4879 23.4681 42.4879 23.5 42.3446C24.0344 39.9854 24.0344 39.9854 24.5132 39.9375ZM12.6729 45.8146C12.759 45.9868 12.759 45.9868 12.759 45.9868L12.6729 45.8146ZM18.0979 47.0201C17.8973 47.382 17.7182 47.7488 17.5812 48.1396C17.6096 48.1964 17.6381 48.2532 17.6673 48.3118C18.1076 47.8314 18.5456 47.3518 18.959 46.8479C19.0158 46.7911 19.0727 46.7342 19.1312 46.6757C19.0426 46.5705 19.0426 46.5705 18.8567 46.5573C18.5038 46.6044 18.3133 46.7487 18.0979 47.0201ZM29.2066 47.0938C28.7849 47.5451 28.5029 48.0939 28.512 48.7155C28.5127 48.785 28.5135 48.8546 28.5143 48.9264C28.5153 48.9793 28.5163 49.0323 28.5173 49.0868C28.9515 48.8772 29.1675 48.5714 29.4376 48.188C29.4794 48.1305 29.5212 48.0729 29.5643 48.0136C29.9551 47.5126 29.9551 47.5126 30.035 46.9125C30.0173 46.8344 29.9995 46.7562 29.9812 46.6757C29.6114 46.6757 29.4732 46.8527 29.2066 47.0938ZM4.49233 46.934C3.91525 47.1353 3.52551 47.5951 3.24372 48.1234C3.18037 48.3255 3.18037 48.3255 3.28678 48.5701C3.79432 48.092 4.23024 47.5648 4.66456 47.0201C4.60772 46.9917 4.55089 46.9633 4.49233 46.934ZM3.97567 54.3396C4.06178 54.5979 4.06178 54.5979 4.06178 54.5979L3.97567 54.3396Z"></path>
<path fill="white" d="M33.2316 18.5808C33.3239 18.5812 33.4163 18.5816 33.5114 18.5821C33.6499 18.5814 33.6499 18.5814 33.7913 18.5808C34.0281 18.6036 34.0281 18.6036 34.2003 18.7759C34.2264 18.9797 34.2264 18.9797 34.2329 19.2326C34.2373 19.3693 34.2373 19.3693 34.2418 19.5088C34.2441 19.6044 34.2464 19.7 34.2487 19.7984C34.2539 19.9866 34.2594 20.1747 34.2652 20.3629C34.2673 20.4465 34.2693 20.5302 34.2715 20.6164C34.2848 20.8185 34.3157 20.9933 34.3725 21.187C34.6301 21.2543 34.8011 21.2968 35.0614 21.2731C35.3065 21.1147 35.4806 20.9014 35.6696 20.6811C36.6003 19.6794 37.6189 19.1243 38.9364 18.7759C39.015 18.7548 39.0936 18.7337 39.1746 18.7119C41.0706 18.3072 43.1126 18.5767 44.7704 19.5778C45.6712 20.1796 46.2428 20.9608 46.7133 21.9297C46.8246 22.2248 46.8246 22.2248 47.0309 22.3064C47.2819 22.3495 47.2819 22.3495 47.5475 22.3064C47.8193 22.0066 48.034 21.6685 48.2579 21.3323C49.2425 19.8989 50.6186 19.0863 52.3052 18.7059C54.1887 18.36 56.2415 18.5002 57.8809 19.5509C59.3863 20.6692 60.1385 22.2339 60.4233 24.0602C60.4858 24.5726 60.4769 25.0863 60.4767 25.6018C60.4771 25.7716 60.4771 25.7716 60.4776 25.9449C60.4783 26.2535 60.4785 26.5621 60.4786 26.8708C60.4787 27.0637 60.4788 27.2566 60.4791 27.4495C60.4799 28.1224 60.4802 28.7954 60.4802 29.4684C60.4801 30.0959 60.481 30.7234 60.4824 31.3509C60.4835 31.8901 60.484 32.4293 60.4839 32.9685C60.4839 33.2904 60.4841 33.6123 60.485 33.9341C60.486 34.2922 60.4856 34.6503 60.4851 35.0084C60.4856 35.1154 60.4861 35.2224 60.4866 35.3327C60.486 35.4783 60.486 35.4783 60.4855 35.6268C60.4855 35.7115 60.4856 35.7961 60.4856 35.8834C60.4642 36.0842 60.4642 36.0842 60.292 36.2564C60.0552 36.2793 60.0552 36.2793 59.7753 36.2779C59.6368 36.2786 59.6368 36.2786 59.4954 36.2793C59.2586 36.2564 59.2586 36.2564 59.0864 36.0842C59.0644 35.8985 59.0644 35.8985 59.0636 35.6635C59.0629 35.5746 59.0622 35.4857 59.0614 35.394C59.0615 35.296 59.0616 35.198 59.0617 35.097C59.0611 34.9941 59.0605 34.8912 59.0599 34.7851C59.0587 34.5607 59.0579 34.3364 59.0575 34.112C59.0569 33.7561 59.0551 33.4002 59.053 33.0442C59.0488 32.2869 59.046 31.5295 59.0434 30.7722C59.0405 29.9584 59.0374 29.1445 59.0327 28.3307C59.031 28.0355 59.0297 27.7402 59.0292 27.445C59.0556 24.2931 59.0556 24.2931 57.601 21.5775C56.5081 20.5248 55.0861 20.1223 53.5952 20.1408C52.2695 20.2018 51.0284 20.5642 49.9586 21.3592C49.8979 21.4031 49.8372 21.4471 49.7746 21.4924C48.3601 22.6151 47.7023 24.5708 47.4964 26.2978C47.4212 27.0512 47.4342 27.8114 47.4325 28.5676C47.4318 28.8771 47.43 29.1865 47.428 29.4959C47.4232 30.2628 47.4201 31.0297 47.417 31.7966C47.4143 32.4481 47.411 33.0996 47.4067 33.7511C47.4049 34.0563 47.4042 34.3615 47.4035 34.6667C47.4024 34.8523 47.4012 35.0379 47.4 35.2235C47.4002 35.3512 47.4002 35.3512 47.4003 35.4815C47.3996 35.5588 47.3989 35.6361 47.3981 35.7158C47.3979 35.7832 47.3976 35.8506 47.3974 35.92C47.3753 36.0842 47.3753 36.0842 47.2031 36.2564C46.9444 36.2763 46.9444 36.2763 46.638 36.2726C46.486 36.2717 46.486 36.2717 46.3309 36.2709C46.0836 36.2564 46.0836 36.2564 45.9975 36.1703C45.9886 36.0314 45.9856 35.8921 45.9851 35.7529C45.9842 35.6173 45.9842 35.6173 45.9833 35.479C45.9829 35.3289 45.9829 35.3289 45.9826 35.1758C45.982 35.071 45.9814 34.9663 45.9808 34.8584C45.9796 34.6298 45.9786 34.4013 45.9777 34.1727C45.9764 33.8103 45.9743 33.4479 45.9722 33.0855C45.966 32.0546 45.9609 31.0237 45.9565 29.9928C45.954 29.424 45.951 28.8551 45.9473 28.2863C45.945 27.9272 45.9434 27.5681 45.9425 27.209C45.9415 26.9305 45.9394 26.6521 45.9375 26.3736C45.9375 26.2758 45.9374 26.178 45.9374 26.0772C45.9223 24.3974 45.5829 22.7155 44.394 21.4567C43.2966 20.4728 41.9103 20.1201 40.4632 20.1351C38.8018 20.2308 37.2655 20.7803 36.0998 22.0104C34.4459 23.9687 34.2633 26.4207 34.2575 28.8665C34.2568 29.1637 34.255 29.4608 34.253 29.7579C34.2482 30.494 34.2451 31.2302 34.242 31.9663C34.2393 32.5925 34.236 33.2186 34.2317 33.8447C34.2299 34.1377 34.2292 34.4307 34.2285 34.7237C34.2274 34.9017 34.2262 35.0798 34.225 35.2579C34.2251 35.3395 34.2252 35.4211 34.2253 35.5052C34.2246 35.5794 34.2239 35.6536 34.2231 35.7301C34.2229 35.7947 34.2226 35.8593 34.2224 35.9259C34.2003 36.0842 34.2003 36.0842 34.0281 36.2564C33.7913 36.2793 33.7913 36.2793 33.5114 36.2779C33.3729 36.2786 33.3729 36.2786 33.2316 36.2793C32.9947 36.2564 32.9947 36.2564 32.8225 36.0842C32.8055 35.8557 32.7993 35.6362 32.8007 35.4075C32.8003 35.3015 32.8003 35.3015 32.7998 35.1933C32.7992 34.955 32.7997 34.7168 32.8002 34.4785C32.8 34.3082 32.7997 34.138 32.7993 33.9677C32.7985 33.5043 32.7988 33.0408 32.7994 32.5773C32.7998 32.0932 32.7994 31.6091 32.7992 31.125C32.7988 30.3119 32.7993 29.4988 32.8001 28.6857C32.801 27.7445 32.8007 26.8033 32.7998 25.8621C32.799 25.0553 32.7989 24.2484 32.7993 23.4416C32.7996 22.9591 32.7996 22.4767 32.7991 21.9942C32.7986 21.5408 32.7989 21.0873 32.7999 20.6338C32.8001 20.467 32.8001 20.3001 32.7997 20.1333C32.7992 19.9064 32.7998 19.6794 32.8007 19.4525C32.8003 19.3858 32.7999 19.319 32.7995 19.2503C32.8042 18.622 32.8042 18.622 33.2316 18.5808Z"></path>
<path fill="white" d="M69.5023 18.5803C69.6027 18.5807 69.703 18.5812 69.8064 18.5816C69.9068 18.5812 70.0071 18.5807 70.1105 18.5803C70.3661 18.6032 70.3661 18.6032 70.5384 18.7754C70.5617 18.9885 70.5617 18.9885 70.5649 19.254C70.5671 19.3494 70.5693 19.4449 70.5715 19.5432C70.5745 19.745 70.5772 19.9468 70.5796 20.1486C70.5818 20.2441 70.5841 20.3397 70.5865 20.4381C70.5876 20.5258 70.5888 20.6136 70.59 20.704C70.6292 20.9587 70.6793 21.0344 70.8828 21.1865C71.1358 21.2844 71.3209 21.2952 71.5717 21.1865C71.6293 21.0718 71.6867 20.957 71.7439 20.8421C72.7559 19.5717 74.5141 18.8077 76.0971 18.6213C78.2203 18.4383 80.213 18.6625 81.905 20.0671C81.9883 20.1357 81.9883 20.1357 82.0732 20.2056C83.2419 21.2691 83.7923 22.9694 83.9089 24.5083C83.9175 24.8206 83.9186 25.132 83.9163 25.4444C83.9164 25.5624 83.9165 25.6804 83.9168 25.7983C83.9173 26.1141 83.9161 26.4298 83.9146 26.7455C83.9133 27.0772 83.9134 27.409 83.9134 27.7407C83.913 28.2962 83.9118 28.8516 83.9098 29.407C83.9073 30.1206 83.9064 30.8342 83.906 31.5478C83.9057 32.1623 83.9046 32.7768 83.9034 33.3913C83.9031 33.5887 83.9028 33.7861 83.9026 33.9835C83.9022 34.2924 83.9013 34.6013 83.9001 34.9102C83.8995 35.0781 83.8993 35.246 83.8992 35.4139C83.8987 35.5128 83.8982 35.6118 83.8977 35.7138C83.8974 35.8003 83.8972 35.8868 83.8969 35.9759C83.8856 36.1698 83.8856 36.1698 83.7995 36.2559C83.6149 36.2667 83.43 36.2711 83.2451 36.2721C83.144 36.2733 83.0429 36.2745 82.9387 36.2758C82.68 36.2559 82.68 36.2559 82.5078 36.0837C82.4858 35.8964 82.4858 35.8964 82.485 35.6592C82.4843 35.5694 82.4836 35.4796 82.4828 35.3871C82.4829 35.2882 82.483 35.1892 82.4831 35.0873C82.4825 34.9834 82.4819 34.8795 82.4813 34.7724C82.4801 34.5459 82.4793 34.3195 82.4789 34.093C82.4783 33.7338 82.4765 33.3746 82.4744 33.0155C82.4702 32.2514 82.4674 31.4874 82.4648 30.7233C82.4619 29.9019 82.4588 29.0805 82.4541 28.2592C82.4521 27.9033 82.4509 27.5475 82.4503 27.1916C82.4497 26.9157 82.448 26.6398 82.4464 26.3638C82.4465 26.267 82.4466 26.1701 82.4467 26.0704C82.4345 24.4835 82.1378 22.7927 81.0217 21.5841C79.9017 20.5444 78.3757 20.0859 76.8628 20.1286C75.4498 20.2456 74.2013 20.61 73.0356 21.4448C72.981 21.4835 72.9264 21.5221 72.8701 21.5619C71.5213 22.6137 70.8436 24.4512 70.6245 26.0948C70.611 26.416 70.6103 26.737 70.6095 27.0584C70.609 27.1547 70.6084 27.2509 70.6078 27.3501C70.6066 27.5586 70.6056 27.767 70.6047 27.9755C70.6033 28.3052 70.6013 28.6348 70.5991 28.9644C70.593 29.9015 70.5878 30.8385 70.5834 31.7756C70.5807 32.349 70.5771 32.9225 70.5731 33.4959C70.5717 33.7147 70.5706 33.9334 70.5699 34.1521C70.5689 34.4572 70.5668 34.7623 70.5645 35.0674C70.5644 35.1583 70.5644 35.2492 70.5643 35.3428C70.5635 35.4257 70.5626 35.5086 70.5618 35.5941C70.5614 35.6662 70.561 35.7383 70.5607 35.8126C70.5384 35.9976 70.5384 35.9976 70.3661 36.2559C70.1105 36.2872 70.1105 36.2872 69.8064 36.2829C69.6559 36.2824 69.6559 36.2824 69.5023 36.2818C69.2467 36.2559 69.2467 36.2559 69.0745 36.0837C69.0575 35.8552 69.0513 35.6357 69.0526 35.4071C69.0522 35.301 69.0522 35.301 69.0518 35.1928C69.0511 34.9546 69.0517 34.7163 69.0522 34.4781C69.052 34.3078 69.0517 34.1375 69.0513 33.9672C69.0505 33.5038 69.0508 33.0403 69.0513 32.5769C69.0518 32.0928 69.0514 31.6087 69.0511 31.1246C69.0508 30.3115 69.0512 29.4984 69.052 28.6853C69.053 27.7441 69.0527 26.8029 69.0517 25.8616C69.0509 25.0548 69.0508 24.2479 69.0513 23.4411C69.0515 22.9587 69.0516 22.4762 69.051 21.9938C69.0505 21.5403 69.0509 21.0868 69.0518 20.6333C69.0521 20.4665 69.052 20.2997 69.0516 20.1328C69.0512 19.9059 69.0517 19.679 69.0526 19.452C69.0522 19.3853 69.0518 19.3186 69.0514 19.2498C69.0561 18.6202 69.0561 18.6202 69.5023 18.5803Z"></path>
<path fill="white" d="M64.4894 18.5781C64.5817 18.5786 64.6741 18.579 64.7692 18.5795C64.9078 18.5788 64.9078 18.5788 65.0491 18.5781C65.2859 18.601 65.2859 18.601 65.4581 18.7732C65.4751 19.0017 65.4813 19.2213 65.48 19.4499C65.4803 19.5206 65.4805 19.5913 65.4808 19.6641C65.4815 19.9024 65.4809 20.1406 65.4804 20.3789C65.4806 20.5492 65.4809 20.7194 65.4813 20.8897C65.4821 21.3532 65.4818 21.8166 65.4813 22.2801C65.4808 22.7642 65.4812 23.2483 65.4815 23.7324C65.4818 24.5455 65.4814 25.3586 65.4806 26.1717C65.4796 27.1129 65.4799 28.0541 65.4809 28.9953C65.4817 29.8021 65.4818 30.609 65.4813 31.4158C65.4811 31.8983 65.481 32.3807 65.4816 32.8632C65.4821 33.3167 65.4817 33.7701 65.4807 34.2236C65.4805 34.3904 65.4806 34.5573 65.481 34.7241C65.4814 34.951 65.4808 35.178 65.48 35.4049C65.4804 35.4716 65.4808 35.5384 65.4812 35.6071C65.4778 36.0619 65.4778 36.0619 65.2859 36.2538C65.0491 36.2766 65.0491 36.2766 64.7692 36.2753C64.6307 36.276 64.6307 36.276 64.4894 36.2766C64.2526 36.2538 64.2526 36.2538 64.0803 36.0816C64.0633 35.853 64.0572 35.6335 64.0585 35.4049C64.0581 35.2989 64.0581 35.2989 64.0577 35.1907C64.057 34.9524 64.0575 34.7141 64.0581 34.4759C64.0578 34.3056 64.0575 34.1353 64.0571 33.9651C64.0564 33.5016 64.0567 33.0382 64.0572 32.5747C64.0576 32.0906 64.0572 31.6065 64.057 31.1224C64.0567 30.3093 64.0571 29.4962 64.0579 28.6831C64.0588 27.7419 64.0585 26.8007 64.0576 25.8595C64.0568 25.0526 64.0567 24.2458 64.0571 23.4389C64.0574 22.9565 64.0574 22.474 64.0569 21.9916C64.0564 21.5381 64.0567 21.0847 64.0577 20.6312C64.0579 20.4643 64.0579 20.2975 64.0575 20.1307C64.057 19.9037 64.0576 19.6768 64.0585 19.4499C64.0581 19.3831 64.0577 19.3164 64.0573 19.2477C64.062 18.6194 64.062 18.6194 64.4894 18.5781Z"></path>
<path fill="white" d="M36.9726 45.9449C37.0525 45.9875 37.1324 46.0301 37.2148 46.074C37.2148 46.0172 37.2148 45.9604 37.2148 45.9018C37.5274 45.9018 37.84 45.9018 38.162 45.9018C38.162 47.5784 38.162 49.255 38.162 50.9824C37.8494 50.9824 37.5368 50.9824 37.2148 50.9824C37.2148 50.4993 37.2148 50.0162 37.2148 49.5185C37.0159 49.6037 36.817 49.689 36.612 49.7768C36.0828 49.8585 35.5908 49.8185 35.1239 49.5467C34.6858 49.2082 34.4736 48.7656 34.3731 48.2268C34.3084 47.5325 34.4168 46.9484 34.7768 46.3485C35.3864 45.7719 36.1873 45.6126 36.9726 45.9449ZM35.6648 46.849C35.3506 47.1842 35.2948 47.5078 35.3015 47.9631C35.3385 48.3119 35.4931 48.5587 35.7186 48.8188C36.0359 48.9691 36.3551 48.9862 36.6981 48.9157C36.9887 48.802 36.9887 48.802 37.2148 48.5712C37.2913 48.3112 37.2871 48.0656 37.2794 47.7962C37.2814 47.7268 37.2834 47.6573 37.2854 47.5857C37.2834 47.3832 37.2728 47.2153 37.2148 47.0212C36.6708 46.5506 36.2953 46.5104 35.6648 46.849Z"></path>
<path fill="white" d="M62.4601 45.9445C62.54 45.9871 62.6199 46.0297 62.7023 46.0737C62.7023 46.0168 62.7023 45.96 62.7023 45.9014C63.0149 45.9014 63.3274 45.9014 63.6495 45.9014C63.6495 47.578 63.6495 49.2546 63.6495 50.982C63.3369 50.982 63.0243 50.982 62.7023 50.982C62.7023 50.4989 62.7023 50.0158 62.7023 49.5181C62.5034 49.6034 62.3044 49.6886 62.0995 49.7764C61.5677 49.85 61.0871 49.8298 60.6356 49.5181C60.1962 49.14 59.9297 48.7209 59.8606 48.1403C59.8165 47.4893 59.9313 46.9101 60.2642 46.3428C60.8814 45.7756 61.6727 45.6114 62.4601 45.9445ZM61.1523 46.8487C60.8381 47.1838 60.7823 47.5075 60.789 47.9627C60.826 48.3115 60.9806 48.5583 61.2061 48.8185C61.5234 48.9688 61.8426 48.9858 62.1856 48.9153C62.4762 48.8016 62.4762 48.8016 62.7023 48.5709C62.7787 48.3108 62.7746 48.0653 62.7669 47.7959C62.7689 47.7264 62.7708 47.6569 62.7729 47.5853C62.7709 47.3829 62.7602 47.215 62.7023 47.0209C62.1582 46.5503 61.7827 46.5101 61.1523 46.8487Z"></path>
<path fill="white" d="M83.8279 46.0493C84.2976 46.401 84.5061 46.8154 84.6614 47.3632C84.6614 47.6189 84.6614 47.8747 84.6614 48.1382C83.2548 48.1808 83.2548 48.1808 81.8198 48.2243C82.0989 48.7136 82.0989 48.7136 82.3472 48.8647C82.8437 48.9619 83.2998 48.9301 83.725 48.6495C83.7783 48.5944 83.8315 48.5394 83.8864 48.4826C84.1764 48.6026 84.3158 48.7391 84.4892 48.9993C84.3791 49.3418 84.1722 49.4515 83.8737 49.6165C83.3054 49.8719 82.5847 49.8816 81.9977 49.6932C81.429 49.4237 81.0676 49.093 80.8335 48.4947C80.6601 47.8159 80.7443 47.2039 81.0888 46.5993C81.6941 45.7335 82.9191 45.5101 83.8279 46.0493ZM81.992 46.8465C81.9068 47.017 81.8215 47.1875 81.7337 47.3632C82.3873 47.3632 83.0408 47.3632 83.7142 47.3632C83.5288 46.8997 83.4527 46.8101 83.0253 46.5882C82.6122 46.5279 82.3378 46.616 81.992 46.8465Z"></path>
<path fill="white" d="M45.1209 45.7919C45.2244 45.7897 45.328 45.7874 45.4347 45.7852C45.9326 45.8313 46.2806 46.0365 46.6009 46.4162C46.707 46.7344 46.6977 47.0278 46.6954 47.359C46.6953 47.4256 46.6952 47.4921 46.6951 47.5606C46.6946 47.773 46.6935 47.9853 46.6924 48.1976C46.692 48.3416 46.6916 48.4857 46.6912 48.6297C46.6903 48.9826 46.6888 49.3355 46.687 49.6884C46.3139 49.6884 45.9407 49.6884 45.5676 49.6884C45.4397 49.731 45.4397 49.731 45.3092 49.7745C44.7058 49.834 44.1623 49.8203 43.6731 49.4301C43.4179 49.1445 43.3092 48.8588 43.291 48.4775C43.3432 48.0076 43.4555 47.7404 43.8077 47.4226C44.1524 47.1839 44.3558 47.1772 44.7764 47.175C44.8818 47.1738 44.9871 47.1726 45.0956 47.1713C45.3804 47.1902 45.571 47.2405 45.8259 47.3634C45.7403 46.9836 45.7403 46.9836 45.4707 46.723C45.0817 46.6468 44.7165 46.6388 44.3812 46.8629C44.2574 46.9694 44.1372 47.0801 44.0176 47.1912C43.9607 47.1912 43.9039 47.1912 43.8454 47.1912C43.4955 46.7513 43.4955 46.7513 43.5134 46.4993C43.6091 46.2793 43.7148 46.2182 43.9207 46.0987C43.9809 46.0628 44.041 46.0269 44.103 45.99C44.4476 45.8097 44.7368 45.7968 45.1209 45.7919ZM44.2759 48.2245C44.2332 48.5355 44.2332 48.5355 44.362 48.8273C44.6469 49.0191 44.8109 49.1 45.1518 49.0681C45.4315 49.0049 45.6212 48.9459 45.8259 48.7412C45.8834 48.4902 45.8834 48.4902 45.8259 48.2245C45.554 47.9725 45.3695 47.8885 45.0025 47.837C44.6498 47.8883 44.5026 47.9482 44.2759 48.2245Z"></path>
<path fill="white" d="M53.4023 45.8984C53.7433 45.8984 54.0843 45.8984 54.4357 45.8984C54.571 46.214 54.7059 46.5297 54.8404 46.8455C54.8862 46.953 54.9321 47.0604 54.9782 47.1678C55.0443 47.322 55.11 47.4764 55.1757 47.6308C55.2154 47.7236 55.2551 47.8165 55.2959 47.9123C55.3829 48.1373 55.3829 48.1373 55.3829 48.3095C55.4397 48.3095 55.4966 48.3095 55.5551 48.3095C55.5768 48.2407 55.5768 48.2407 55.599 48.1705C55.7648 47.6575 55.9616 47.1633 56.174 46.6681C56.2057 46.5935 56.2374 46.519 56.2701 46.4422C56.3472 46.2608 56.4248 46.0796 56.5023 45.8984C56.8433 45.8984 57.1843 45.8984 57.5357 45.8984C57.3566 46.4599 57.1484 46.9981 56.9124 47.5379C56.8777 47.6176 56.8429 47.6972 56.8072 47.7793C56.734 47.9466 56.6607 48.1137 56.5872 48.2808C56.4757 48.5351 56.3656 48.7899 56.2556 49.0449C56.184 49.2081 56.1123 49.3714 56.0405 49.5346C56.0082 49.6101 55.9759 49.6855 55.9426 49.7633C55.7237 50.2546 55.455 50.8138 54.9523 51.0651C54.7623 51.0712 54.572 51.0724 54.3819 51.0705C54.2795 51.0697 54.1772 51.0689 54.0717 51.0681C53.9929 51.0671 53.9141 51.0661 53.8329 51.0651C53.8613 50.7809 53.8897 50.4968 53.919 50.204C54.1748 50.204 54.4305 50.204 54.694 50.204C54.895 49.559 54.8503 49.2267 54.5628 48.6247C54.5137 48.5152 54.5137 48.5152 54.4636 48.4034C54.3594 48.172 54.2524 47.9421 54.1451 47.7122C54.039 47.4798 53.9336 47.2472 53.8283 47.0144C53.7628 46.8701 53.6967 46.7261 53.63 46.5823C53.4023 46.089 53.4023 46.089 53.4023 45.8984Z"></path>
<path fill="white" d="M39.1946 45.8984C39.4787 45.8984 39.7629 45.8984 40.0557 45.8984C40.0574 45.978 40.0591 46.0575 40.0609 46.1394C40.0676 46.4345 40.0751 46.7296 40.083 47.0248C40.0863 47.1525 40.0893 47.2802 40.092 47.4079C40.096 47.5915 40.1009 47.7751 40.1061 47.9587C40.1089 48.0692 40.1116 48.1797 40.1143 48.2935C40.1215 48.5811 40.1215 48.5811 40.314 48.8262C40.4888 48.8674 40.4888 48.8674 40.6854 48.8585C40.7508 48.8592 40.8161 48.8598 40.8835 48.8605C41.1561 48.815 41.3029 48.7414 41.5196 48.5679C41.5871 48.2856 41.5871 48.2856 41.5805 47.9587C41.5818 47.8998 41.5831 47.8409 41.5844 47.7803C41.5881 47.5925 41.5889 47.4048 41.5895 47.217C41.5915 47.0896 41.5937 46.9622 41.5961 46.8347C41.6015 46.5226 41.6043 46.2106 41.6057 45.8984C41.9183 45.8984 42.2309 45.8984 42.5529 45.8984C42.5529 47.1488 42.5529 48.3991 42.5529 49.6873C42.2403 49.6873 41.9277 49.6873 41.6057 49.6873C41.5773 49.6305 41.5489 49.5737 41.5196 49.5151C41.4397 49.5577 41.3597 49.6004 41.2774 49.6443C40.7567 49.8665 40.1982 49.851 39.6682 49.6712C39.4158 49.4882 39.3264 49.3674 39.1946 49.0845C39.1728 48.8316 39.1644 48.5979 39.1694 48.3455C39.1697 48.2754 39.1701 48.2053 39.1705 48.1331C39.1719 47.9102 39.1751 47.6874 39.1784 47.4646C39.1797 47.313 39.1809 47.1615 39.182 47.01C39.1848 46.6394 39.1893 46.2689 39.1946 45.8984Z"></path>
<path fill="white" d="M64.6836 45.8984C64.9678 45.8984 65.252 45.8984 65.5448 45.8984C65.5465 45.978 65.5482 46.0575 65.5499 46.1394C65.5567 46.4345 65.5641 46.7296 65.5721 47.0248C65.5754 47.1525 65.5784 47.2802 65.5811 47.4079C65.585 47.5915 65.59 47.7751 65.5952 47.9587C65.5979 48.0692 65.6006 48.1797 65.6034 48.2935C65.6105 48.5811 65.6105 48.5811 65.8031 48.8262C65.9779 48.8674 65.9779 48.8674 66.1744 48.8585C66.2398 48.8592 66.3052 48.8598 66.3726 48.8605C66.6452 48.815 66.7919 48.7414 67.0086 48.5679C67.0762 48.2856 67.0762 48.2856 67.0695 47.9587C67.0708 47.8998 67.0721 47.8409 67.0735 47.7803C67.0772 47.5925 67.0779 47.4048 67.0786 47.217C67.0806 47.0896 67.0828 46.9622 67.0852 46.8347C67.0906 46.5226 67.0934 46.2106 67.0948 45.8984C67.4073 45.8984 67.7199 45.8984 68.042 45.8984C68.042 47.1488 68.042 48.3991 68.042 49.6873C67.7294 49.6873 67.4168 49.6873 67.0948 49.6873C67.0663 49.6305 67.0379 49.5737 67.0086 49.5151C66.9287 49.5577 66.8488 49.6004 66.7665 49.6443C66.3409 49.8263 65.9138 49.8263 65.4586 49.7734C65.1757 49.6496 64.9676 49.4942 64.7698 49.2568C64.6619 48.9331 64.673 48.632 64.6752 48.2951C64.6754 48.2266 64.6755 48.1582 64.6756 48.0877C64.6761 47.8692 64.6772 47.6508 64.6783 47.4323C64.6787 47.2841 64.6791 47.1359 64.6794 46.9878C64.6804 46.6247 64.6819 46.2616 64.6836 45.8984Z"></path>
<path fill="white" d="M79.494 45.9385C79.8325 46.2276 79.9277 46.5087 80.0107 46.9341C80.0408 47.4102 80.0352 47.8836 80.0268 48.3604C80.0255 48.4896 80.0243 48.6188 80.0233 48.748C80.0205 49.0619 80.016 49.3758 80.0107 49.6897C79.6981 49.6897 79.3855 49.6897 79.0635 49.6897C79.0617 49.6071 79.06 49.5246 79.0583 49.4395C79.0517 49.1336 79.0441 48.8277 79.0361 48.5219C79.0328 48.3894 79.0298 48.2569 79.0271 48.1244C79.0232 47.9342 79.0182 47.744 79.013 47.5537C79.012 47.4944 79.011 47.435 79.01 47.3738C79.0075 47.0296 79.0075 47.0296 78.8051 46.7619C78.6298 46.7312 78.6298 46.7312 78.4338 46.735C78.3684 46.7336 78.303 46.7321 78.2356 46.7306C77.9614 46.7724 77.8169 46.8461 77.5996 47.0203C77.532 47.3026 77.532 47.3026 77.5387 47.6294C77.5374 47.6883 77.5361 47.7472 77.5347 47.8079C77.531 47.9956 77.5303 48.1833 77.5296 48.3711C77.5276 48.4986 77.5254 48.626 77.523 48.7534C77.5176 49.0655 77.5148 49.3776 77.5135 49.6897C77.2293 49.6897 76.9451 49.6897 76.6523 49.6897C76.6523 48.4394 76.6523 47.189 76.6523 45.9008C76.9365 45.9008 77.2207 45.9008 77.5135 45.9008C77.5419 45.9576 77.5703 46.0145 77.5996 46.073C77.6795 46.0304 77.7594 45.9878 77.8418 45.9439C78.3587 45.7247 78.9785 45.7004 79.494 45.9385Z"></path>
<path fill="white" d="M73.4667 46.074C73.6819 46.2193 73.6819 46.2193 73.8111 46.3323C73.7555 46.6324 73.6302 46.8514 73.4667 47.1073C73.2674 47.0077 73.0731 46.9067 72.88 46.7951C72.4697 46.6181 72.0823 46.6272 71.6583 46.7629C71.6583 46.8765 71.6583 46.9902 71.6583 47.1073C71.797 47.1386 71.797 47.1386 71.9385 47.1705C72.0622 47.1996 72.1859 47.2288 72.3095 47.258C72.4005 47.2783 72.4005 47.2783 72.4934 47.299C73.0115 47.4232 73.4823 47.5858 73.8111 48.0276C73.9255 48.4064 73.9132 48.7069 73.8111 49.0879C73.629 49.41 73.4135 49.6016 73.063 49.733C72.3686 49.8855 71.6733 49.851 71.0357 49.5329C70.875 49.4268 70.7499 49.3205 70.625 49.174C70.625 48.8906 70.7363 48.8025 70.9318 48.5927C71.001 48.5288 71.0703 48.4648 71.1417 48.399C71.2038 48.4522 71.266 48.5055 71.33 48.5604C71.7535 48.8804 72.0736 48.955 72.6056 48.9156C72.8746 48.7749 72.8746 48.7749 72.9231 48.5604C72.932 48.5071 72.9409 48.4539 72.95 48.399C72.8585 48.3791 72.7671 48.3592 72.6728 48.3388C71.1299 47.9888 71.1299 47.9888 70.7488 47.4248C70.6783 46.992 70.7165 46.6443 70.9372 46.2623C71.6442 45.6111 72.6418 45.6763 73.4667 46.074Z"></path>
<path fill="white" d="M51.6809 44.9531C51.9935 44.9531 52.3061 44.9531 52.6281 44.9531C52.6281 45.2657 52.6281 45.5783 52.6281 45.9003C52.8555 45.9003 53.0828 45.9003 53.317 45.9003C53.317 46.1561 53.317 46.4118 53.317 46.6753C53.0897 46.6753 52.8623 46.6753 52.6281 46.6753C52.6281 47.4142 52.6281 48.153 52.6281 48.9142C52.8555 48.8574 53.0828 48.8006 53.317 48.742C53.4023 48.9978 53.4875 49.2535 53.5753 49.517C53.2242 49.7979 52.921 49.8147 52.4882 49.7999C52.2156 49.7672 52.057 49.7018 51.8531 49.517C51.6808 49.1764 51.6606 48.8958 51.6641 48.517C51.6646 48.4096 51.6652 48.3022 51.6658 48.1915C51.6672 48.0802 51.6687 47.9688 51.6701 47.854C51.6709 47.7409 51.6717 47.6279 51.6725 47.5114C51.6745 47.2327 51.6774 46.954 51.6809 46.6753C51.482 46.6753 51.2831 46.6753 51.0781 46.6753C51.0781 46.4196 51.0781 46.1638 51.0781 45.9003C51.277 45.9003 51.476 45.9003 51.6809 45.9003C51.6809 45.5878 51.6809 45.2752 51.6809 44.9531Z"></path>
<path fill="white" d="M65.1136 12.3176C65.527 12.5084 65.7392 12.7527 65.9206 13.1602C66.0513 13.6204 65.9535 14.001 65.7379 14.4166C65.4333 14.7721 65.2442 14.8865 64.7746 14.9386C64.4062 14.9233 64.1893 14.7985 63.9081 14.5565C63.6396 14.2232 63.5511 13.8613 63.5636 13.4371C63.6415 13.0542 63.7582 12.8088 64.0426 12.5383C64.4009 12.3086 64.6914 12.2633 65.1136 12.3176Z"></path>
<path fill="white" d="M47.7188 44.6094C48.0313 44.6094 48.3439 44.6094 48.666 44.6094C48.666 46.286 48.666 47.9625 48.666 49.6899C48.3534 49.6899 48.0408 49.6899 47.7188 49.6899C47.7188 48.0133 47.7188 46.3368 47.7188 44.6094Z"></path>
<path fill="white" d="M74.6719 45.8984C74.9845 45.8984 75.297 45.8984 75.6191 45.8984C75.6191 47.1488 75.6191 48.3991 75.6191 49.6873C75.3065 49.6873 74.9939 49.6873 74.6719 49.6873C74.6719 48.437 74.6719 47.1867 74.6719 45.8984Z"></path>
<path fill="white" d="M69.0742 45.8984C69.3584 45.8984 69.6426 45.8984 69.9353 45.8984C69.9353 47.1488 69.9353 48.3991 69.9353 49.6873C69.6512 49.6873 69.367 49.6873 69.0742 49.6873C69.0742 48.437 69.0742 47.1867 69.0742 45.8984Z"></path>
<path fill="white" d="M49.6992 45.8984C49.9834 45.8984 50.2676 45.8984 50.5603 45.8984C50.5603 47.1488 50.5603 48.3991 50.5603 49.6873C50.2762 49.6873 49.992 49.6873 49.6992 49.6873C49.6992 48.437 49.6992 47.1867 49.6992 45.8984Z"></path>
<path fill="white" d="M75.447 44.6941C75.6192 44.834 75.6192 44.834 75.7053 45.0385C75.6863 45.3548 75.6735 45.5009 75.447 45.7274C74.9258 45.7748 74.9258 45.7748 74.6773 45.6305C74.5424 45.3925 74.5523 45.2209 74.5858 44.9524C74.7819 44.6065 75.0847 44.6488 75.447 44.6941Z"></path>
<path fill="white" d="M50.0872 44.6562C50.3886 44.6939 50.3886 44.6939 50.5555 44.7908C50.6904 45.0289 50.6805 45.2004 50.6469 45.4689C50.5501 45.6304 50.5501 45.6304 50.3886 45.7273C50.0375 45.7638 49.9124 45.7542 49.6136 45.555C49.5271 45.2708 49.4972 45.1104 49.6136 44.8339C49.7858 44.6939 49.7858 44.6939 50.0872 44.6562Z"></path>
<path fill="white" d="M69.463 44.6523C69.7644 44.6954 69.7644 44.6954 69.9313 44.7923C70.0662 45.0304 70.0563 45.2019 70.0228 45.4704C69.9259 45.6319 69.9259 45.6319 69.7644 45.7287C69.4133 45.7653 69.2882 45.7557 68.9894 45.5565C68.8865 45.2844 68.8914 45.1594 68.9894 44.8838C69.1617 44.6954 69.1617 44.6954 69.463 44.6523Z"></path>
</g>
<defs>
<clipPath id="clip0_396_408">
<rect fill="white" height="65" width="88"></rect>
</clipPath>
</defs>
</svg>
