<svg width="72" height="65" viewBox="0 0 72 65" fill="none" xmlns="http://www.w3.org/2000/svg">
<path d="M13.9195 31.9543C13.9195 35.3279 10.1478 36.9017 7.5952 36.9017C4.34731 36.9017 2.69955 35.5259 2.69955 32.8118C2.69955 30.3899 4.54733 29.0894 8.70006 28.5711C11.005 28.2884 12.9099 27.9963 13.9291 27.2141V31.9543H13.9195ZM18.1961 38.1456L18.4533 38.0891V36.4494L18.0627 36.5342C17.1674 36.7227 16.5388 36.6755 16.1673 36.374C15.6625 35.9499 15.6721 35.0264 15.6721 34.2159V24.3022C15.6721 20.2405 13.4433 18.1014 9.20486 18.1014C2.91862 18.1014 1.94711 22.2666 1.82329 24.0572L1.79471 24.4153H3.54724L3.56629 24.1043C3.74726 21.2866 5.74743 19.7317 9.19534 19.7317C10.6145 19.7317 13.91 20.1086 13.91 23.6425C13.91 26.1963 11.7956 26.4791 9.34773 26.7995C8.97627 26.8466 8.59528 26.8937 8.23335 26.9502C3.05196 27.7513 0.9375 29.5418 0.9375 33.1511C0.9375 36.374 3.49009 38.5414 7.29041 38.5414C10.2335 38.5414 12.4718 37.552 13.9481 35.5824C14.1481 37.486 15.0625 38.3153 16.9007 38.3153C17.1008 38.3059 17.596 38.287 18.1961 38.1456ZM45.9698 38.1268H47.7224V24.5566C47.7224 20.3913 45.6936 18.0919 42.0267 18.0919C39.0836 18.0919 37.0548 19.2228 35.5214 21.7578C34.807 19.3547 33.0259 18.0919 30.3304 18.0919C27.854 18.0919 25.8824 19.1285 24.4442 21.1923V18.3558H22.6917V38.1268H24.4442V24.8488C24.4442 22.7567 26.7397 19.7128 30.3304 19.7128C32.9783 19.7128 34.3117 21.5881 34.3117 25.2917V38.1174H36.0643V24.8488C36.0643 22.3797 38.3121 19.7128 41.9505 19.7128C44.7697 19.7128 45.9794 21.3808 45.9794 25.2917V38.1268H45.9698ZM67.6098 11.6555L67.6193 11.4199H65.781L65.762 11.6272C65.5905 13.7193 64.8095 13.9643 64.238 13.9643C63.4666 13.9643 62.676 13.4366 61.8474 12.89C60.8092 12.2021 59.6281 11.4199 58.1614 11.4199C56.1612 11.4199 54.9325 12.8712 54.7896 15.4156L54.7801 15.6418H56.6184L56.6374 15.4439C56.7612 13.8889 57.2756 13.1068 58.1614 13.1068C58.9424 13.1068 59.7615 13.6345 60.6092 14.1905C61.6474 14.869 62.8284 15.6418 64.238 15.6418C66.2668 15.6512 67.4669 14.2376 67.6098 11.6555ZM65.7239 31.9543C65.7239 35.3279 61.9521 36.9017 59.3996 36.9017C56.1517 36.9017 54.5039 35.5259 54.5039 32.8118C54.5039 30.3899 56.3517 29.0894 60.5044 28.5711C62.8094 28.2884 64.7143 27.9963 65.7334 27.2141V31.9543H65.7239ZM70.2481 38.0891V36.4494L69.8576 36.5342C68.9622 36.7227 68.3336 36.6755 67.9717 36.374C67.4669 35.9499 67.4669 35.0264 67.4764 34.2159V24.3022C67.4764 20.2405 65.2477 18.1014 61.0092 18.1014C54.723 18.1014 53.7514 22.2666 53.6276 24.0572L53.6086 24.4153H55.3611L55.3802 24.1043C55.5611 21.2866 57.5613 19.7317 61.0092 19.7317C62.4284 19.7317 65.7239 20.1086 65.7239 23.6425C65.7239 26.1963 63.6094 26.4791 61.1616 26.7995C60.7901 26.8466 60.4092 26.8937 60.0472 26.9502C54.8658 27.7513 52.7514 29.5418 52.7514 33.1511C52.7514 36.374 55.304 38.5414 59.1043 38.5414C62.0474 38.5414 64.2857 37.552 65.762 35.5824C65.962 37.486 66.8764 38.3153 68.7146 38.3153C68.8956 38.3153 69.3909 38.2964 70.0004 38.1551L70.2481 38.0891Z" fill="white"></path>
<path d="M70.6635 43.8299L70.8569 43.4556C70.6732 43.3339 70.4508 43.2403 70.209 43.1748C69.9673 43.0999 69.7256 43.0625 69.4838 43.0625C69.1841 43.0625 68.9133 43.1093 68.691 43.2029C68.4686 43.2965 68.2848 43.4275 68.1591 43.5866C68.0334 43.755 67.9658 43.9516 67.9658 44.1762C67.9658 44.4382 68.0334 44.6535 68.1591 44.8126C68.2848 44.9717 68.4396 45.0933 68.6233 45.1776C68.807 45.2618 69.0487 45.346 69.3485 45.4396C69.6192 45.5238 69.8223 45.5894 69.9673 45.6642C70.122 45.7297 70.238 45.814 70.3444 45.9356C70.4411 46.0573 70.4991 46.207 70.4991 46.3848C70.4991 46.6188 70.4024 46.806 70.1994 46.937C70.006 47.0774 69.7352 47.1429 69.3968 47.1429C69.1454 47.1429 68.8843 47.0867 68.6233 46.9744C68.3622 46.8621 68.1301 46.7124 67.9271 46.5252L67.724 46.8902C67.9368 47.0961 68.1882 47.2552 68.4879 47.3769C68.7877 47.4985 69.0874 47.564 69.3968 47.564C69.7062 47.564 69.9866 47.5172 70.238 47.4143C70.4798 47.3207 70.6635 47.1803 70.7989 46.9932C70.9342 46.8153 71.0019 46.6001 71.0019 46.3661C71.0019 46.0947 70.9342 45.8795 70.8085 45.711C70.6732 45.5519 70.5185 45.4209 70.3347 45.3367C70.151 45.2524 69.9093 45.1588 69.6095 45.0746C69.3485 44.9997 69.1454 44.9249 69.0004 44.8594C68.8457 44.7939 68.7296 44.7003 68.6233 44.588C68.5266 44.4757 68.4686 44.3259 68.4686 44.1387C68.4686 43.9329 68.5556 43.7644 68.749 43.6427C68.9327 43.5211 69.1744 43.4649 69.4838 43.4649C69.6772 43.4649 69.8803 43.493 70.093 43.5492C70.2767 43.624 70.4798 43.7176 70.6635 43.8299ZM64.5428 47.536H66.9408V47.1429H64.978V43.1093H64.5428V47.536ZM62.3189 47.536H62.754V43.1093H62.3189V47.536ZM58.8766 43.5679L59.9499 45.9637H57.8227L58.8766 43.5679ZM61.1199 47.536L59.1184 43.1093H58.6542L56.6527 47.536H57.1168L57.639 46.3568H60.1143L60.6461 47.536H61.1199ZM52.7753 45.711V43.5024H54.0033C54.4288 43.5024 54.7478 43.5959 54.9799 43.7831C55.212 43.9703 55.3183 44.2323 55.3183 44.5973C55.3183 44.9623 55.2023 45.2337 54.9799 45.4303C54.7478 45.6174 54.4288 45.7204 54.0033 45.7204H52.7753V45.711ZM55.7825 47.536L54.7092 46.0105C55.0379 45.9169 55.299 45.7484 55.473 45.4958C55.6471 45.2524 55.7438 44.9436 55.7438 44.5786C55.7438 44.1107 55.5891 43.7457 55.2893 43.493C54.9799 43.2403 54.5545 43.1093 54.0033 43.1093H52.3402V47.536H52.7753V46.1041H54.0033C54.071 46.1041 54.1774 46.1041 54.3127 46.0947L55.27 47.536H55.7825ZM47.8053 43.5024H49.275V47.536H49.7101V43.5024H51.1799V43.1093H47.8053V43.5024ZM42.5162 47.2178C42.2455 47.2178 42.0231 47.1335 41.8393 46.9651C41.6556 46.7966 41.5686 46.5814 41.5686 46.3193C41.5686 46.1041 41.646 45.9263 41.791 45.7765C41.936 45.6268 42.1488 45.477 42.4195 45.3273C42.6612 45.6174 43.077 46.0479 43.6572 46.6094C43.2897 47.0119 42.9126 47.2178 42.5162 47.2178ZM42.1101 44.0171C42.1101 43.8299 42.1778 43.6802 42.3035 43.5585C42.4388 43.4369 42.6129 43.3807 42.8159 43.3807C43.0093 43.3807 43.1737 43.4369 43.2897 43.5398C43.4058 43.6521 43.4638 43.7831 43.4638 43.9609C43.4638 44.1107 43.4251 44.2417 43.3381 44.3446C43.2607 44.4569 43.1447 44.5599 43.019 44.6441C42.8836 44.7283 42.7193 44.8219 42.5065 44.9342C42.2551 44.5786 42.1101 44.2698 42.1101 44.0171ZM44.8852 47.3675L44.102 46.5907C44.2953 46.338 44.4694 46.0386 44.6241 45.6829L44.3244 45.4677C44.1793 45.8046 44.0246 46.0947 43.8602 46.3568C43.3187 45.8327 42.9416 45.4303 42.7193 45.1588C42.961 45.0278 43.164 44.9155 43.3091 44.8126C43.4638 44.7096 43.5798 44.588 43.6862 44.4476C43.7829 44.3072 43.8409 44.1387 43.8409 43.9516C43.8409 43.6989 43.7539 43.4836 43.5605 43.3245C43.3671 43.1655 43.135 43.0812 42.8353 43.0812C42.6322 43.0812 42.4485 43.1187 42.2841 43.2029C42.1198 43.2777 41.9941 43.3994 41.907 43.5398C41.82 43.6802 41.7717 43.8393 41.7717 44.0171C41.7717 44.1762 41.8103 44.3446 41.8877 44.5225C41.965 44.6909 42.0907 44.8874 42.2455 45.084C41.9167 45.2524 41.6653 45.4396 41.4816 45.6268C41.2979 45.814 41.2108 46.0573 41.2108 46.3474C41.2108 46.572 41.2689 46.7779 41.3849 46.9557C41.5009 47.1429 41.6556 47.2833 41.8587 47.3862C42.0617 47.4892 42.2745 47.5453 42.5162 47.5453C42.7676 47.5453 43.0093 47.4892 43.2511 47.3675C43.4831 47.2458 43.7152 47.068 43.9086 46.8434C44.218 47.1429 44.4791 47.3956 44.6725 47.5828L44.8852 47.3675ZM37.9426 43.8299L38.136 43.4556C37.9523 43.3339 37.7299 43.2403 37.4882 43.1748C37.2464 43.0999 37.0047 43.0625 36.763 43.0625C36.4536 43.0625 36.1925 43.1093 35.9701 43.2029C35.738 43.2965 35.564 43.4275 35.4286 43.5866C35.3029 43.755 35.2352 43.9516 35.2352 44.1762C35.2352 44.4382 35.3029 44.6535 35.4286 44.8126C35.5543 44.9717 35.709 45.0933 35.8927 45.1776C36.0765 45.2618 36.3182 45.346 36.6179 45.4396C36.8887 45.5238 37.0917 45.5894 37.2368 45.6642C37.3915 45.7297 37.5075 45.814 37.6139 45.9356C37.7202 46.0573 37.7686 46.207 37.7686 46.3848C37.7686 46.6188 37.6719 46.806 37.4688 46.937C37.2658 47.0774 37.0047 47.1429 36.6663 47.1429C36.4149 47.1429 36.1538 47.0867 35.8927 46.9744C35.6317 46.8621 35.3996 46.7124 35.1965 46.5252L34.9935 46.8902C35.2062 47.0961 35.4576 47.2552 35.7574 47.3769C36.0571 47.4985 36.3569 47.564 36.6663 47.564C36.9757 47.564 37.2561 47.5172 37.4978 47.4143C37.7396 47.3207 37.933 47.1803 38.0587 46.9932C38.194 46.8153 38.2617 46.6001 38.2617 46.3661C38.2617 46.0947 38.194 45.8795 38.0683 45.711C37.933 45.5519 37.7782 45.4209 37.5945 45.3367C37.4108 45.2524 37.1691 45.1588 36.8693 45.0746C36.6083 44.9997 36.4052 44.9249 36.2602 44.8594C36.1055 44.7939 35.9894 44.7003 35.8831 44.588C35.7864 44.4757 35.7284 44.3259 35.7284 44.1387C35.7284 43.9329 35.8154 43.7644 36.0088 43.6427C36.1925 43.5211 36.4342 43.4649 36.7436 43.4649C36.937 43.4649 37.1401 43.493 37.3528 43.5492C37.5655 43.624 37.7589 43.7176 37.9426 43.8299ZM33.8912 43.1093L32.4215 45.4958L30.9227 43.1093H30.4586L32.1991 45.9637V47.536H32.6439V45.9543L34.3553 43.0999H33.8912V43.1093ZM28.0509 43.5679L29.1146 45.9637H26.997L28.0509 43.5679ZM30.2942 47.536L28.2927 43.1093H27.8286L25.827 47.536H26.2911L26.8133 46.3568H29.2789L29.8108 47.536H30.2942ZM22.3751 43.5024H23.8448V47.536H24.2896V43.5024H25.7593V43.1093H22.3751V43.5024ZM21.2148 43.8299L21.4081 43.4556C21.2244 43.3339 21.0117 43.2403 20.7603 43.1748C20.5186 43.0999 20.2768 43.0625 20.0351 43.0625C19.7354 43.0625 19.4743 43.1093 19.2422 43.2029C19.0102 43.2965 18.8361 43.4275 18.7104 43.5866C18.5847 43.755 18.517 43.9516 18.517 44.1762C18.517 44.4382 18.5847 44.6535 18.7104 44.8126C18.8361 44.9717 18.9908 45.0933 19.1745 45.1776C19.3583 45.2618 19.6 45.346 19.8997 45.4396C20.1705 45.5238 20.3735 45.5894 20.5186 45.6642C20.6733 45.7297 20.7893 45.814 20.8957 45.9356C20.9924 46.0573 21.0504 46.207 21.0504 46.3848C21.0504 46.6188 20.9537 46.806 20.7506 46.937C20.5476 47.0774 20.2865 47.1429 19.9384 47.1429C19.687 47.1429 19.4259 47.0867 19.1649 46.9744C18.9038 46.8621 18.6717 46.7124 18.4687 46.5252L18.2656 46.8902C18.4783 47.0961 18.7298 47.2552 19.0295 47.3769C19.3292 47.4985 19.629 47.564 19.9384 47.564C20.2478 47.564 20.5282 47.5172 20.77 47.4143C21.0117 47.3207 21.1954 47.1803 21.3308 46.9932C21.4662 46.8153 21.5338 46.6001 21.5338 46.3661C21.5338 46.0947 21.4662 45.8795 21.3405 45.711C21.2051 45.5519 21.0504 45.4209 20.8667 45.3367C20.6829 45.2524 20.4412 45.1588 20.1415 45.0746C19.8804 44.9997 19.6773 44.9249 19.5323 44.8594C19.3776 44.7939 19.2616 44.7003 19.1552 44.588C19.0488 44.4757 19.0005 44.3259 19.0005 44.1387C19.0005 43.9329 19.0875 43.7644 19.2809 43.6427C19.4646 43.5211 19.7063 43.4649 20.0158 43.4649C20.2092 43.4649 20.4122 43.493 20.6346 43.5492C20.8377 43.624 21.031 43.7176 21.2148 43.8299Z" fill="white"></path>
</svg>
