<svg width="126" height="65" viewBox="0 0 126 65" fill="none" xmlns="http://www.w3.org/2000/svg">
<g clip-path="url(#clip0_1137_588)">
<path d="M51.4029 31.4496L42.4494 22.2407L39.5859 19.2428V39.9729H42.8527V27.2552L54.6831 39.9729V22.3349C54.6831 20.4527 53.2447 18.8933 51.4029 18.7051V31.4496Z" fill="white"></path>
<path d="M27.0156 39.9728H30.2018V22.6843C30.2018 20.856 28.8036 19.3369 27.0156 19.1621V39.9728Z" fill="white"></path>
<path d="M70.5323 20.0361C68.6367 20.9503 67.0907 22.4694 66.1765 24.3649C62.3048 32.3773 68.0855 40.2956 75.6812 40.2956C80.2251 40.2956 84.1238 37.459 85.6832 33.4528H82.3895C81.0452 35.7651 78.5447 37.3111 75.6812 37.3111C70.0886 37.3111 65.8673 31.3825 68.9862 25.4539C69.4837 24.5128 70.6801 23.3298 71.6212 22.8324C75.7484 20.6814 79.8621 22.093 81.9862 25.0371C82.2685 25.427 82.7122 25.669 83.1961 25.669C84.3926 25.669 85.1186 24.2977 84.4061 23.3298C82.4567 20.6142 79.2706 18.8262 75.6677 18.8262C74.0276 18.8262 72.2799 19.2026 70.5323 20.0361ZM6.41964 20.0361C4.52409 20.9503 2.97807 22.4694 2.06391 24.3649C-1.79441 32.3773 3.9729 40.2956 11.5685 40.2956C16.1125 40.2956 20.0111 37.459 21.5706 33.4528H18.2769C16.9325 35.7651 14.432 37.3111 11.5685 37.3111C5.976 37.3111 1.7547 31.3825 4.87362 25.4539C5.37104 24.5128 6.56752 23.3298 7.50857 22.8324C11.6358 20.6814 15.763 22.093 17.8736 25.0371C18.1559 25.427 18.5996 25.669 19.0835 25.669C20.2935 25.669 21.006 24.2977 20.2935 23.3298C18.3441 20.6142 15.158 18.8262 11.5551 18.8262C9.91498 18.8262 8.18075 19.2026 6.41964 20.0361ZM78.6388 27.9947C77.7649 27.9947 77.0659 28.7072 77.0659 29.5676C77.0659 30.4415 77.7649 31.1405 78.6388 31.1405H86.0193C86.0193 29.3929 84.6077 27.9813 82.8735 27.9813H78.6388V27.9947ZM14.5261 27.9947C13.6523 27.9947 12.9532 28.7072 12.9532 29.5676C12.9532 30.4415 13.6657 31.1405 14.5261 31.1405H21.9067C21.9067 29.3929 20.4951 27.9813 18.7474 27.9813H14.5261V27.9947Z" fill="white"></path>
<path d="M93.7344 19.3379V39.705H104.462V36.5592H96.8398V31.1817H102.527V28.0762H96.8398V22.4434H104.449C104.274 20.6957 102.795 19.3379 101.007 19.3379H93.7344Z" fill="white"></path>
<path d="M113.902 19.3379L113.875 39.705H116.967L116.994 33.6822V32.4454V28.4527V22.4568H119.118C120.073 22.4568 120.893 22.7929 121.565 23.4516C122.223 24.1507 122.546 24.9708 122.546 25.8849C122.546 26.8394 122.21 27.6595 121.551 28.3182C120.893 28.977 120.449 29.2458 119.817 29.2458L117.128 29.3131L122.102 38.1052C122.681 39.0866 123.743 39.705 124.872 39.705H126.001L121.444 32.0018L121.793 31.8405C122.519 31.5178 123.165 31.0742 123.729 30.4961C124.979 29.3265 125.665 27.6864 125.665 25.8849C125.665 24.191 125.006 22.6316 123.729 21.2738C122.546 20.0504 120.866 19.3379 119.091 19.3379H117.317H117.007H113.902Z" fill="white"></path>
</g>
<defs>
<clipPath id="clip0_1137_588">
<rect width="126" height="65" fill="white"></rect>
</clipPath>
</defs>
</svg>
