<svg width="101" height="65" viewBox="0 0 101 65" fill="none" xmlns="http://www.w3.org/2000/svg">
<path d="M101.001 28.9142C101.001 41.9393 90.2828 52.4995 77.0633 52.4995C63.8438 52.4995 53.1133 41.9393 53.1133 28.9142C53.1133 15.8891 63.8311 5.31641 77.0633 5.31641C90.2955 5.31641 101.001 15.8891 101.001 28.9142Z" fill="white"></path>
<path d="M70.3086 29.1308C69.7445 28.7482 68.847 28.5014 67.5905 28.3533C66.7186 28.2669 64.2056 28.2299 64.2056 27.5018C64.2056 27.2674 64.3338 27.0823 64.7185 26.9218C65.1031 26.7614 65.7185 26.6874 66.5647 26.6874C68.6418 26.6874 69.8214 27.5759 69.8214 27.5759L71.0266 26.1691C71.0266 26.1691 69.1291 24.861 66.5391 24.861C65.2313 24.861 64.2056 25.0955 63.4619 25.6014C62.7183 26.095 62.2695 26.7614 62.2695 27.5142C62.2695 28.2299 62.6029 28.884 63.0901 29.2665C63.5773 29.6491 64.1928 29.8835 65.2057 30.044C65.4493 30.081 66.0904 30.1674 67.1545 30.2167C67.8213 30.2537 68.3085 30.3154 68.6034 30.4142C69.1547 30.5993 69.3342 30.8461 69.347 31.1916C69.347 31.5001 69.1803 31.7593 68.7444 31.9937C68.3085 32.2159 67.6674 32.3393 66.834 32.3393C64.9108 32.3393 63.526 31.4754 63.526 31.4754L62.3465 32.8699C62.3465 32.8699 64.0133 34.2027 66.8596 34.178C67.3853 34.178 67.8597 34.141 68.2957 34.0546C69.0265 33.9312 69.6291 33.7091 70.1163 33.3882C70.6164 33.0427 70.9625 32.6108 71.142 32.0678C71.219 31.8827 71.2959 31.4878 71.2959 31.1052C71.2703 30.2414 70.9497 29.5627 70.3086 29.1308ZM97.9519 29.1308C97.3749 28.7482 96.4774 28.5014 95.2209 28.3533C94.3619 28.2669 91.836 28.2299 91.836 27.5018C91.836 27.2674 91.9642 27.0823 92.3617 26.9218C92.7463 26.7614 93.3618 26.6874 94.1952 26.6874C96.2723 26.6874 97.4519 27.5759 97.4519 27.5759L98.6571 26.1691C98.6571 26.1691 96.7595 24.861 94.1695 24.861C92.8617 24.861 91.836 25.0955 91.0795 25.6014C90.3359 26.095 89.8871 26.7614 89.8871 27.5142C89.8871 28.2299 90.2077 28.884 90.7077 29.2665C91.1949 29.6491 91.8104 29.8835 92.8233 30.044C93.0669 30.081 93.708 30.1674 94.7722 30.2167C95.4389 30.2537 95.9261 30.3154 96.221 30.4142C96.7723 30.5993 96.9646 30.8461 96.9646 31.1916C96.9646 31.5001 96.798 31.7593 96.362 31.9937C95.9261 32.2159 95.285 32.3393 94.4516 32.3393C92.5156 32.3393 91.1437 31.4754 91.1437 31.4754L89.9513 32.8699C89.9513 32.8699 91.6181 34.2027 94.4644 34.178C94.9901 34.178 95.4645 34.141 95.9004 34.0546C96.6313 33.9312 97.2339 33.7091 97.7083 33.3882C98.2083 33.0427 98.5545 32.6108 98.734 32.0678C98.8109 31.8827 98.8879 31.4878 98.8879 31.1052C98.9135 30.2414 98.5801 29.5627 97.9519 29.1308ZM79.2453 30.7844C79.2324 31.0188 79.2965 31.5618 78.8478 31.8703C78.4503 32.1542 77.5785 32.3763 76.6425 32.364C75.7963 32.364 75.1552 32.2405 74.7064 32.0184C74.2577 31.784 74.1038 31.5248 74.091 31.2163C74.091 30.8708 74.2833 30.4759 74.8346 30.2908C75.1295 30.2044 75.6296 30.118 76.2963 30.0933C77.6939 30.044 78.3221 30.0193 79.2196 29.7725V30.7844H79.2453ZM80.0274 25.6138C79.2709 25.1201 78.2452 24.8733 76.9246 24.8733C74.3218 24.8733 72.4883 26.1691 72.4883 26.1691L73.7064 27.5759C73.7064 27.5759 74.8218 26.7121 76.8989 26.7121C77.7323 26.7121 78.2708 26.7984 78.6683 26.9465C79.0658 27.1193 79.1812 27.2921 79.194 27.5265C79.194 27.7733 79.0658 28.0078 78.3606 28.1189C77.5015 28.1929 76.7322 28.2916 75.8604 28.378C74.6039 28.5261 73.6935 28.7729 73.1166 29.1555C72.4755 29.575 72.1549 30.2661 72.1549 31.1299C72.1549 32.1048 72.5652 32.8946 73.3345 33.4129C74.1038 33.9435 75.1936 34.1903 76.604 34.1903C78.2324 34.1903 79.8222 33.635 80.4248 33.092C81.0146 32.5491 81.1685 31.7963 81.1685 31.3274V27.798V27.7116C81.1941 26.8231 80.7838 26.1074 80.0274 25.6138ZM86.2586 32.3393C84.6303 32.3393 84.6175 30.698 84.6175 30.155V27.5759H88.4383V25.8606H84.6047V23.627L82.643 24.4661V30.3648C82.643 30.8708 82.5917 34.1903 86.1817 34.1903C87.9511 34.1903 89.1307 32.8822 89.1307 32.8822L87.9383 31.4878C87.9511 31.4878 87.1433 32.3393 86.2586 32.3393Z" fill="black"></path>
<path d="M43.256 7.91118V2.5L36.918 6.13926L41.6229 8.83803L43.256 7.91118ZM42.6209 4.34007V7.69309L41.1692 5.18514L42.6209 4.34007ZM40.3008 5.67583L41.7655 8.19741L38.8362 6.5209L40.3008 5.67583Z" fill="white"></path>
<path d="M41.1405 8.62778L36.2109 6.02148V13.0637L41.1405 10.4574V8.62778ZM37.5689 7.42994L40.6245 9.049H37.5689V7.42994ZM37.5689 11.6421V10.0231H40.638L37.5689 11.6421Z" fill="white"></path>
<path d="M43.957 12.4904V17.2901L50.2951 14.05L45.5901 11.6562L43.957 12.4904ZM44.5921 15.6459V12.6597L46.0567 14.8963L44.5921 15.6459ZM46.9251 14.4611L45.4605 12.2245L48.3768 13.7115L46.9251 14.4611Z" fill="white"></path>
<path d="M46.0703 8.6541V10.4574L50.9999 13.0637V6.02148L46.0703 8.6541ZM49.6456 11.6553L46.5849 10.0362H49.6456V11.6553ZM49.6456 9.07532H46.5985L49.6456 7.45626V9.07532Z" fill="white"></path>
<path d="M50.2951 6.13145L43.957 2.5V7.89957L45.5868 8.83803L50.2951 6.13145ZM44.5908 4.33612L46.0525 5.17938L44.5908 7.69555V4.33612ZM46.9191 5.66902L48.3807 6.51227L45.4575 8.19879L46.9191 5.66902Z" fill="white"></path>
<path d="M43.256 17.2901V12.4904L41.6229 11.6562L36.918 14.05L43.256 17.2901ZM42.6209 15.6459L41.1692 14.9084L42.6209 12.6839V15.6459ZM41.7655 12.2245L40.3008 14.449L38.8492 13.7115L41.7655 12.2245Z" fill="white"></path>
<path d="M16.0391 19.9427C18.5456 19.9936 19.3052 20.7458 19.3558 21.4214L19.3811 21.7146C19.4064 22.1098 19.4697 22.2373 19.6849 22.2373C19.8495 22.2373 19.9128 22.0843 19.9381 21.8166C19.9381 21.1282 20.0141 19.2925 20.0141 18.7443C20.0141 18.3491 19.9888 18.1834 19.7862 18.1834C19.5584 18.1834 18.8874 18.4511 17.0898 18.4511H5.9624C5.03828 18.4511 3.96225 18.4001 3.1394 18.3109C2.44315 18.2599 2.15199 17.9922 1.93678 17.9922C1.77221 17.9922 1.6836 18.1579 1.59498 18.5021C1.54435 18.7188 1 21.1282 1 21.5489C1 21.8421 1.05064 21.9696 1.25318 21.9696C1.41775 21.9696 1.50637 21.8676 1.557 21.6509C1.6203 21.4469 1.75955 21.1282 2.03805 20.733C2.45581 20.1466 3.12674 20.0191 4.75978 19.9682L8.94996 19.8662V30.7276C8.94996 33.1625 8.94997 35.2532 8.81071 36.375C8.73476 37.1399 8.55753 37.7263 7.98787 37.8283C7.73468 37.8793 7.40555 37.9303 6.97513 37.9303C6.64599 37.9303 6.53206 38.0068 6.53206 38.147C6.53206 38.3255 6.72195 38.4147 7.08906 38.4147C8.21573 38.4147 9.98802 38.3382 10.6336 38.3382C11.4185 38.3382 13.1908 38.4147 15.0517 38.4147C15.3555 38.4147 15.5834 38.3255 15.5834 38.147C15.5834 38.0195 15.4441 37.9303 15.1403 37.9303C14.7226 37.9303 14.1023 37.8793 13.7098 37.8283C12.8743 37.7263 12.6971 37.1399 12.6211 36.4005C12.4819 35.2532 12.4819 33.1752 12.4819 30.7276V19.8662L16.0391 19.9427Z" fill="white"></path>
<path d="M39.0263 38.1621C39.0263 37.9853 38.8916 37.9474 38.6835 37.9474C38.3651 37.9474 37.9733 37.9222 37.5693 37.8464C37.006 37.7074 36.2469 37.3412 35.2307 34.9794C33.541 30.9883 29.2923 20.2782 28.6557 18.8258C28.3863 18.2195 28.2271 17.9922 27.9945 17.9922C27.7251 17.9922 27.5782 18.2827 27.2599 19.0405L20.5991 35.5225C20.0726 36.836 19.5584 37.7327 18.334 37.8843C18.1259 37.9095 17.7463 37.9348 17.5137 37.9348C17.3055 37.9348 17.1953 37.9853 17.1953 38.1495C17.1953 38.3642 17.3545 38.4147 17.6973 38.4147C19.0809 38.4147 20.5379 38.3389 20.8318 38.3389C21.6521 38.3389 22.7908 38.4147 23.6479 38.4147C23.9417 38.4147 24.1009 38.3642 24.1009 38.1495C24.1009 37.9979 24.0274 37.9348 23.6969 37.9348H23.305C22.4847 37.9348 22.2398 37.5938 22.2398 37.1265C22.2398 36.8107 22.3745 36.1792 22.6439 35.5225L24.0764 31.7714C24.1254 31.6072 24.1866 31.5567 24.3091 31.5567H30.2229C30.3576 31.5567 30.431 31.6072 30.48 31.7335L32.6105 37.3033C32.7451 37.619 32.5615 37.8464 32.3778 37.9095C32.1085 37.9348 31.9983 37.9853 31.9983 38.1369C31.9983 38.3263 32.3166 38.3263 32.7941 38.3516C34.9123 38.4021 36.8591 38.4021 37.8019 38.4021C38.7937 38.44 39.0263 38.3768 39.0263 38.1621ZM29.7209 30.2684H24.8355C24.7376 30.2684 24.7009 30.1927 24.7376 30.079L27.1741 23.6251C27.1986 23.5241 27.2599 23.3852 27.3333 23.3852C27.4068 23.3852 27.4435 23.5241 27.468 23.6251L29.8556 30.1042C29.8678 30.1927 29.8433 30.2684 29.7209 30.2684Z" fill="white"></path>
<path d="M47.5674 19.4023C46.4047 19.4023 44.5415 19.4765 43.813 19.4765C43.0425 19.4765 41.1654 19.4023 39.5964 19.4023C39.1481 19.4023 38.9379 19.4518 38.9379 19.6371C38.9379 19.8224 39.12 19.8718 39.4423 19.8718C39.8625 19.8718 40.3668 19.8965 40.605 19.946C41.5856 20.1189 41.8238 20.539 41.8798 21.4038C41.9358 22.2316 41.9358 22.9482 41.9358 26.8523V34.2281C41.9358 39.2689 41.9639 41.8387 39.7084 43.8155C39.12 44.322 38.6718 44.6062 38.2795 44.7915C37.7752 45.0263 37.6211 45.1251 37.6211 45.2486C37.6211 45.3846 37.7472 45.4587 37.8592 45.4587C38.0133 45.4587 38.2375 45.4093 38.4476 45.3104C39.078 45.051 39.5403 44.8409 39.9326 44.6433C42.7904 43.136 44.3594 41.3569 44.9898 39.7878C45.5922 38.3423 45.7042 36.6991 45.7042 35.2412C45.7042 33.9563 45.6202 32.7209 45.6202 31.6213V26.877C45.6202 22.9729 45.6202 22.2563 45.6762 21.4285C45.7323 20.5266 45.9704 20.0942 46.7829 19.9707C47.1331 19.9212 47.3153 19.8965 47.6515 19.8965C48.0017 19.8965 48.1838 19.8471 48.1838 19.6618C48.1978 19.4518 47.9877 19.4023 47.5674 19.4023Z" fill="white"></path>
</svg>
