<svg width="167" height="65" viewBox="0 0 167 65" fill="none" xmlns="http://www.w3.org/2000/svg">
<g clip-path="url(#clip0_1137_586)">
<path d="M165.394 26.1158L166.869 24.974C165.923 24.0901 164.921 23.4639 163.899 23.0772C162.878 22.6905 161.705 22.4879 160.362 22.4879C159.265 22.4879 158.319 22.5984 157.544 22.8378C156.749 23.0588 156.106 23.3718 155.614 23.7586C155.104 24.1453 154.744 24.5873 154.517 25.0845C154.29 25.5817 154.177 26.0974 154.177 26.6314C154.177 27.3496 154.366 27.9574 154.725 28.4546C155.085 28.9518 155.558 29.357 156.125 29.67C156.693 30.0015 157.355 30.2778 158.073 30.4803C158.792 30.7013 159.53 30.8855 160.249 31.0696C160.873 31.217 161.459 31.3827 162.046 31.5484C162.613 31.7142 163.124 31.8983 163.559 32.1377C163.994 32.3587 164.335 32.635 164.599 32.9296C164.864 33.2243 164.997 33.5926 164.997 34.0346C164.997 34.3845 164.883 34.6975 164.656 35.0106C164.429 35.3237 164.108 35.5999 163.691 35.8209C163.275 36.0419 162.783 36.2445 162.197 36.3734C161.611 36.5023 160.968 36.5759 160.287 36.5759C159.681 36.5759 159.133 36.5207 158.66 36.4286C158.168 36.3181 157.733 36.1892 157.317 36.005C156.901 35.8209 156.541 35.5999 156.182 35.3421C155.841 35.0658 155.501 34.7712 155.179 34.4581L153.458 35.7288C154.442 36.6496 155.482 37.2942 156.541 37.6993C157.6 38.1044 158.83 38.2886 160.211 38.2886C161.176 38.2886 162.084 38.1965 162.897 38.0124C163.729 37.8282 164.429 37.552 165.053 37.1837C165.659 36.8338 166.15 36.3734 166.491 35.8393C166.831 35.3052 167.002 34.6791 167.002 33.9793C167.002 33.2611 166.813 32.6534 166.453 32.1377C166.094 31.6405 165.621 31.217 165.034 30.8855C164.448 30.554 163.786 30.2593 163.067 30.0383C162.348 29.8174 161.611 29.5964 160.892 29.4122C160.343 29.2465 159.795 29.0807 159.227 28.915C158.679 28.7308 158.168 28.5283 157.695 28.2889C157.241 28.0494 156.863 27.7732 156.579 27.4786C156.295 27.1839 156.144 26.834 156.144 26.4657C156.144 25.8027 156.522 25.2871 157.279 24.8635C158.036 24.4584 159.076 24.2374 160.4 24.2374C161.421 24.2374 162.329 24.4031 163.105 24.7162C163.881 25.0293 164.58 25.5081 165.167 26.1158H165.394ZM139.101 26.8893L150.847 38.2518V22.5063H148.975V33.5005L137.171 22.2117V37.9387H139.101V26.8893ZM133.369 33.0769C133.691 32.1377 133.842 31.1985 133.842 30.2409C133.842 29.2833 133.691 28.3257 133.369 27.4049C133.048 26.4841 132.575 25.6554 131.932 24.9372C131.288 24.219 130.475 23.6297 129.51 23.1877C128.546 22.7457 127.411 22.5247 126.124 22.5247C125.027 22.5247 124.006 22.7273 123.041 23.1324C122.095 23.5376 121.244 24.0901 120.544 24.7899C119.825 25.4897 119.258 26.2999 118.842 27.2392C118.426 28.1784 118.218 29.1728 118.218 30.2409C118.218 31.309 118.426 32.3035 118.842 33.2427C119.258 34.1635 119.825 34.9922 120.544 35.692C121.263 36.4102 122.095 36.9627 123.041 37.3494C124.006 37.7545 125.027 37.9571 126.124 37.9571C127.411 37.9571 128.546 37.7361 129.51 37.2941C130.475 36.8522 131.27 36.2629 131.932 35.5447C132.556 34.8264 133.048 33.9977 133.369 33.0769ZM132.14 30.2225C132.14 31.0328 131.988 31.7878 131.667 32.5061C131.345 33.2243 130.91 33.8504 130.362 34.3845C129.813 34.9185 129.17 35.3421 128.432 35.6367C127.694 35.9498 126.919 36.0787 126.087 36.0787C125.235 36.0787 124.441 35.9314 123.703 35.6367C122.965 35.3421 122.341 34.9185 121.793 34.3845C121.244 33.8504 120.828 33.2243 120.506 32.5061C120.185 31.7878 120.033 31.0328 120.033 30.2225C120.033 29.4122 120.185 28.6572 120.506 27.939C120.828 27.2207 121.244 26.5946 121.793 26.0605C122.341 25.5265 122.965 25.1029 123.703 24.7899C124.441 24.4768 125.235 24.3295 126.087 24.3295C126.919 24.3295 127.694 24.4768 128.432 24.7899C129.17 25.1029 129.813 25.5265 130.362 26.0605C130.91 26.5946 131.345 27.2207 131.667 27.939C131.988 28.6572 132.14 29.4122 132.14 30.2225ZM112.921 37.9571H114.907V22.5247H112.921V37.9571ZM113.526 47.4228H111.313C109.478 50.5535 105.506 52.837 99.3017 50.664C96.2184 49.5959 93.4567 48.141 90.7895 46.7598C88.5196 45.5812 86.42 44.4947 84.4149 43.7765C90.014 41.9533 94.062 36.7969 94.062 30.7566C94.062 23.1693 87.7251 17 79.9318 17C72.1384 17 65.8016 23.1693 65.8016 30.7566C65.8016 36.8338 69.8875 42.0086 75.5433 43.8133C72.7438 45.1208 71.5142 47.3307 71.4575 47.478L73.2167 48.362C73.2356 48.3252 75.1461 44.8262 79.9129 44.8262C82.8827 44.8262 86.1173 46.5204 89.8626 48.4909C92.473 49.8537 95.4239 51.4006 98.6396 52.524C100.512 53.1685 102.271 53.5 103.936 53.5C105.601 53.5 107.152 53.1685 108.57 52.5055C111.446 51.1059 112.902 48.7672 113.526 47.4228ZM79.9129 42.6347C73.1788 42.6347 67.6932 37.2941 67.6932 30.7381C67.6932 24.1821 73.1788 18.8416 79.9129 18.8416C86.6469 18.8416 92.1326 24.1821 92.1326 30.7381C92.1326 37.2941 86.6469 42.6347 79.9129 42.6347ZM103.804 24.3663H109.611V22.5063H95.9346V24.3663H101.874V37.9571H103.804V24.3663ZM49.061 37.9387H61.7914V36.0235H51.0283V30.8302H61.2051V28.9518H51.0283V24.3479H61.7914V22.4879H49.061V37.9387ZM33.0015 37.9387H45.7318V36.0235H34.9687V22.4879H33.0015V37.9387ZM16.9608 37.9387H29.6912V36.0235H18.928V30.8302H29.1048V28.9518H18.928V24.3479H29.6912V22.4879H16.9608V37.9387ZM3.24674 27.4417C2.963 27.1471 2.81167 26.7972 2.81167 26.4289C2.81167 25.7659 3.18999 25.2318 3.94663 24.8267C4.70326 24.4031 5.74364 24.2006 7.06775 24.2006C8.08921 24.2006 8.99717 24.3663 9.77272 24.6794C10.5483 24.9924 11.2482 25.4712 11.8346 26.079L12.0426 26.1158L13.537 24.974C12.5723 24.0901 11.5886 23.4639 10.5672 23.0772C9.54573 22.6905 8.37295 22.4879 7.02992 22.4879C5.9328 22.4879 4.987 22.5984 4.21145 22.8378C3.41698 23.0772 2.77384 23.3718 2.28203 23.777C1.7713 24.1637 1.4119 24.6057 1.18491 25.1029C0.957915 25.6002 0.844419 26.1158 0.844419 26.6499C0.844419 27.3681 1.03358 27.9758 1.39298 28.473C1.75238 28.9702 2.22528 29.3754 2.79276 29.6884C3.36023 30.0199 4.02229 30.2962 4.74109 30.4987C5.4599 30.7197 6.19762 30.9039 6.91642 31.088C7.54065 31.2538 8.12704 31.4011 8.71343 31.5669C9.28091 31.7326 9.79164 31.9168 10.2267 32.1562C10.6618 32.3771 11.0023 32.6534 11.2671 32.948C11.5319 33.2427 11.6643 33.611 11.6643 34.053C11.6643 34.4029 11.5508 34.7159 11.3238 35.029C11.0968 35.3421 10.7753 35.6183 10.3591 35.8393C9.94297 36.0787 9.43224 36.2629 8.86476 36.3918C8.27837 36.5207 7.63523 36.5944 6.95425 36.5944C6.34894 36.5944 5.80039 36.5391 5.32749 36.447C4.83567 36.3365 4.40061 36.2076 3.98446 36.0235C3.56831 35.8393 3.20891 35.6183 2.8495 35.3605C2.50902 35.0843 2.16853 34.7896 1.86588 34.4765L0.144531 35.7472C1.12816 36.6496 2.16853 37.3126 3.22782 37.6993C4.28711 38.1044 5.51665 38.2886 6.87859 38.2886C7.8433 38.2886 8.75126 38.1965 9.56465 38.0124C10.3969 37.8282 11.0968 37.552 11.7211 37.1837C12.3264 36.8153 12.8182 36.3734 13.1587 35.8393C13.4992 35.3052 13.6694 34.6791 13.6694 33.9793C13.6694 33.2611 13.4802 32.6534 13.1208 32.1377C12.7614 31.6405 12.2885 31.217 11.7021 30.8855C11.1158 30.554 10.4537 30.2593 9.73489 30.0383C9.01609 29.7989 8.27837 29.5964 7.55956 29.4122C7.011 29.2649 6.46244 29.0991 5.89496 28.915C5.3464 28.7308 4.83567 28.5283 4.38169 28.2889C3.9088 28.0126 3.53048 27.7548 3.24674 27.4417Z" fill="white"></path>
</g>
<defs>
<clipPath id="clip0_1137_586">
<rect width="167" height="65" fill="white"></rect>
</clipPath>
</defs>
</svg>
