<svg width="136" height="65" viewBox="0 0 136 65" fill="none" xmlns="http://www.w3.org/2000/svg">
<path d="M135.999 39.4465L126.258 20.5257C126.258 20.5257 125.794 19.5228 125.053 19.5228C123.95 19.5228 123.514 20.4209 123.239 20.9448C123.035 21.334 114.006 38.7879 113.672 39.4465H116.111L119.101 33.5188H131.441L134.576 39.4465H135.999ZM130.947 32.5907L119.551 32.6057L124.284 23.2201C124.385 23.0106 124.545 22.8459 124.734 22.7411C125.097 22.5465 125.576 22.5765 125.924 23.1153L130.947 32.5907ZM110.072 20.7353L116.793 20.7502V19.5228H99.4161V20.7502L106.079 20.7353C106.457 20.7353 106.762 21.0496 106.762 21.4388V39.4615H109.389V21.4388C109.389 21.0496 109.694 20.7353 110.072 20.7353ZM95.54 38.0245V19.5078H94.277V37.0515C94.277 37.261 94.0302 37.3509 93.8996 37.1862C91.7656 34.4469 82.6488 22.8609 80.4858 20.1066C80.1954 19.7323 79.7454 19.5228 79.2809 19.5228C78.4824 19.5228 77.8437 20.1814 77.8437 21.0047L77.8292 39.4765H79.1212V22.6663C79.1212 22.3669 79.4841 22.2322 79.6583 22.4717C81.8939 25.3307 89.9219 35.5845 92.4043 38.728C92.7382 39.1471 93.4496 39.4914 93.9722 39.4914H94.1028C94.9013 39.4914 95.54 38.8328 95.54 38.0245ZM73.5611 39.4615H74.9983L65.2574 20.5407C65.2574 20.5407 64.7928 19.5228 64.0524 19.5228C62.9491 19.5228 62.5136 20.4209 62.2378 20.9448C62.0346 21.349 53.0049 38.7879 52.671 39.4465H55.1099L58.1004 33.5188H70.4545L73.5611 39.4615ZM69.9464 32.5907L58.5505 32.6206L63.283 23.2351C63.3847 23.0255 63.5443 22.8459 63.7331 22.7411C64.096 22.5615 64.5751 22.5765 64.9235 23.1153L69.9464 32.5907ZM46.6319 38.4436L56.3874 19.5228H54.9502L46.3126 35.8689C45.9496 36.4078 45.4706 36.4228 45.1222 36.2282C44.9189 36.1234 44.7737 35.9438 44.6721 35.7492L36.4845 19.5078H34.0456C34.3795 20.1664 43.4091 37.6203 43.6124 38.0095C43.8882 38.5484 44.3092 39.4315 45.427 39.4315C46.1674 39.4465 46.6319 38.4436 46.6319 38.4436ZM27.2371 39.4615H29.6469V19.5228H27.2371V39.4615ZM13.1555 38.4436L22.911 19.5378H21.4738L12.8361 35.8689C12.4732 36.4078 11.9942 36.4228 11.6457 36.2282C11.4425 36.1234 11.2973 35.9438 11.1957 35.7492L2.99356 19.5378H0.554688C0.888581 20.1964 9.91821 37.6203 10.1215 38.0245C10.3973 38.5633 10.8183 39.4465 11.9361 39.4465C12.691 39.4465 13.1555 38.4436 13.1555 38.4436Z" fill="white"></path>
</svg>
